SplineFontDB: 3.2
FontName: Hypnogogia
FullName: Hypnogogia
FamilyName: Hypnogogia
Weight: Regular
Copyright: creado por @pr00thmatic\nDominio publico
Version: 1.1
ItalicAngle: 0
UnderlinePosition: 0
UnderlineWidth: 0
Ascent: 256
Descent: 64
InvalidEm: 0
LayerCount: 2
Layer: 0 0 "Back" 1
Layer: 1 0 "Fore" 0
XUID: [1021 307 1127429350 2280]
OS2Version: 0
OS2_WeightWidthSlopeOnly: 0
OS2_UseTypoMetrics: 0
CreationTime: 1616769513
ModificationTime: 1616769896
PfmFamily: 17
TTFWeight: 400
TTFWidth: 5
LineGap: 29
VLineGap: 29
OS2TypoAscent: 0
OS2TypoAOffset: 1
OS2TypoDescent: 0
OS2TypoDOffset: 1
OS2TypoLinegap: 29
OS2WinAscent: 0
OS2WinAOffset: 1
OS2WinDescent: 0
OS2WinDOffset: 1
HheadAscent: 0
HheadAOffset: 1
HheadDescent: 0
HheadDOffset: 1
OS2Vendor: 'PfEd'
MarkAttachClasses: 1
DEI: 91125
Encoding: Original
UnicodeInterp: none
NameList: ΤεΧ Names
DisplaySize: -48
AntiAlias: 1
FitToEm: 0
WidthSeparation: 20
WinInfo: 0 38 14
BeginPrivate: 0
EndPrivate
BeginChars: 100 100

StartChar: uni0000
Encoding: 0 0 0
Width: 87
VWidth: 249
Flags: HW
LayerCount: 2
Fore
SplineSet
47 136 m 0
 50 146 34 151 31 141 c 1
 28 137 26 132 23 127 c 1
 21 128 19 129 17 129 c 0
 8 133 1 118 10 114 c 0
 11 113 13 113 14 112 c 1
 13 110 12 107 11 105 c 0
 9 101 6 97 4 93 c 0
 0 87 8 78 15 83 c 0
 16 85 18 85 19 87 c 0
 24 92 27 100 30 106 c 1
 35 104 39 102 44 100 c 0
 44 100 53 98 52 99 c 1
 61 94 69 107 60 112 c 0
 57 114 54 115 51 116 c 0
 47 117 42 119 38 121 c 1
 41 126 44 131 47 136 c 0
72 88 m 0
 66 88 61 81 65 75 c 0
 67 72 70 65 67 61 c 1
 63 61 59 66 57 68 c 0
 54 71 52 74 50 77 c 0
 47 82 35 74 35 72 c 0
 35 71 35 69 35 68 c 0
 35 63 35 58 33 54 c 0
 32 52 l 1
 33 53 l 1
 32 51 32 50 30 50 c 0
 24 52 24 64 23 70 c 0
 21 80 5 77 7 67 c 1
 7 61 8 55 10 49 c 0
 14 38 27 30 40 38 c 0
 45 42 48 47 50 52 c 1
 57 46 66 43 76 49 c 0
 88 58 85 73 79 84 c 0
 77 86 74 88 72 88 c 0
69 64 m 0
 70 64 68 62 68 62 c 0
 68 62 69 61 67 61 c 1
 69 63 69 64 69 64 c 0
EndSplineSet
Validated: 37
EndChar

StartChar: A
Encoding: 1 65 1
Width: 100
VWidth: 249
Flags: HW
LayerCount: 2
Fore
SplineSet
37 209 m 1
 31 200 29 188 26 176 c 0
 21 157 19 136 15 116 c 0
 11 100 8 84 7 65 c 0
 6 52 3 38 3 24 c 0
 2 11 22 9 23 22 c 1
 26 36 27 49 28 64 c 0
 28 70 28 76 29 82 c 1
 42 85 56 86 69 89 c 0
 69 89 l 1
 71 76 73 63 73 49 c 0
 73 38 76 29 77 19 c 0
 77 18 78 16 78 15 c 0
 77 3 96 2 97 14 c 0
 98 17 98 19 97 22 c 0
 95 36 93 52 92 67 c 0
 91 77 90 86 89 96 c 0
 87 112 85 127 82 142 c 0
 79 162 76 182 69 198 c 0
 64 210 51 224 37 209 c 1
54 200 m 0
 54 198 53 197 52 197 c 1
 53 199 53 200 54 200 c 0
51 191 m 1
 53 186 54 181 55 176 c 0
 58 164 60 151 62 138 c 0
 63 128 66 118 67 108 c 1
 56 106 44 106 33 104 c 1
 37 122 39 141 43 159 c 0
 44 164 45 169 46 174 c 0
 47 179 48 184 50 189 c 0
 50 189 51 190 51 191 c 1
EndSplineSet
Validated: 37
EndChar

StartChar: B
Encoding: 2 66 2
Width: 117
VWidth: 249
Flags: HW
LayerCount: 2
Fore
SplineSet
77 217 m 0
 69 226 56 235 40 233 c 0
 32 232 24 230 17 226 c 1
 11 228 1 224 3 215 c 1
 4 200 9 186 10 172 c 0
 10 162 11 153 11 142 c 0
 12 125 14 108 15 91 c 0
 16 81 17 70 18 60 c 0
 18 55 18 49 18 44 c 0
 18 41 18 37 18 34 c 1
 17 31 17 27 18 24 c 0
 18 20 21 18 24 17 c 0
 30 12 39 8 47 7 c 0
 52 7 58 8 63 9 c 0
 84 16 105 25 110 48 c 0
 113 59 115 70 115 83 c 0
 115 88 114 93 114 98 c 0
 114 103 114 109 113 114 c 0
 110 132 100 146 88 156 c 0
 84 159 80 162 76 164 c 1
 81 169 86 177 87 185 c 0
 88 199 84 209 77 217 c 0
51 211 m 0
 61 207 69 200 67 185 c 0
 66 179 59 174 53 172 c 2
 53 172 48 171 47 170 c 0
 35 166 37 169 46 151 c 0
 46 151 50 151 51 151 c 0
 66 150 76 141 84 132 c 0
 86 129 88 125 90 122 c 0
 92 118 92 114 93 110 c 0
 93 105 94 101 94 96 c 0
 95 80 94 64 90 51 c 0
 86 39 74 33 62 29 c 0
 59 28 55 27 51 27 c 0
 46 27 41 29 38 32 c 1
 38 36 38 42 38 46 c 0
 38 63 36 78 35 93 c 0
 34 116 32 137 31 160 c 1
 29 177 28 194 25 209 c 0
 26 209 l 0
 35 212 28 209 38 212 c 0
 42 213 47 213 51 211 c 0
EndSplineSet
Validated: 41
EndChar

StartChar: C
Encoding: 3 67 3
Width: 72
VWidth: 249
Flags: HW
LayerCount: 2
Fore
SplineSet
45 175 m 1
 43 183 45 197 38 199 c 0
 36 200 33 200 30 199 c 0
 28 198 28 199 32 200 c 1
 25 197 25 185 24 176 c 0
 23 166 24 155 24 145 c 0
 24 130 24 115 24 100 c 0
 24 95 25 91 25 86 c 0
 26 82 26 77 26 72 c 0
 26 67 26 63 27 58 c 0
 28 53 29 49 31 45 c 0
 32 43 39 30 43 36 c 1
 33 33 43 35 45 37 c 0
 49 40 49 47 50 53 c 0
 50 66 70 65 70 52 c 1
 69 42 67 34 61 27 c 0
 52 18 36 11 24 22 c 0
 15 30 9 41 7 55 c 0
 7 60 6 65 6 70 c 0
 6 75 6 79 5 83 c 0
 4 98 3 114 4 130 c 0
 4 134 4 139 4 143 c 0
 4 148 4 153 3 158 c 0
 3 170 3 181 6 191 c 0
 7 196 9 202 12 207 c 0
 17 214 24 219 34 219 c 0
 40 219 45 217 50 214 c 0
 56 210 61 204 63 197 c 0
 65 190 64 183 64 176 c 0
 65 163 46 162 45 175 c 1
EndSplineSet
Validated: 37
EndChar

StartChar: D
Encoding: 4 68 4
Width: 92
VWidth: 249
Flags: HW
LayerCount: 2
Fore
SplineSet
23 201 m 1
 28 183 27 161 29 140 c 0
 30 124 30 109 31 93 c 0
 31 82 31 71 30 60 c 0
 30 55 29 49 29 44 c 0
 28 40 29 35 29 31 c 0
 29 23 26 28 10 31 c 1
 11 41 13 53 12 64 c 0
 11 80 12 98 10 114 c 0
 8 129 8 142 6 157 c 0
 5 167 4 177 4 187 c 0
 3 193 5 199 7 204 c 0
 12 213 17 214 26 217 c 0
 40 220 51 215 59 209 c 0
 64 205 68 202 72 197 c 0
 78 189 82 179 85 168 c 0
 87 159 88 150 89 140 c 0
 90 119 88 99 85 81 c 0
 84 76 83 70 81 65 c 0
 76 53 69 43 61 34 c 0
 57 30 51 26 46 23 c 0
 39 18 30 16 22 17 c 0
 19 18 21 17 17 19 c 0
 7 26 18 42 28 35 c 1
 26 36 26 36 28 36 c 0
 29 37 30 36 31 37 c 1
 24 35 30 36 31 37 c 0
 35 40 40 43 44 46 c 0
 48 49 51 53 54 57 c 0
 57 61 59 65 61 70 c 0
 66 82 67 97 69 111 c 0
 69 115 70 120 70 124 c 0
 70 133 69 142 68 150 c 0
 66 158 65 167 62 174 c 0
 60 178 58 181 55 185 c 0
 49 192 39 201 25 197 c 1
 35 201 28 199 26 198 c 1
 24 195 24 192 24 189 c 0
 24 184 25 180 25 175 c 0
 26 165 28 155 28 145 c 0
 28 140 29 135 29 130 c 0
 29 120 31 109 31 99 c 0
 31 88 31 78 32 67 c 0
 33 56 32 45 30 35 c 0
 30 34 30 28 29 28 c 0
 12 25 11 20 9 28 c 0
 7 38 9 49 9 59 c 0
 9 64 10 71 10 76 c 0
 11 81 10 87 11 92 c 0
 11 102 11 111 10 121 c 0
 9 126 9 132 9 137 c 0
 9 143 7 149 7 155 c 0
 6 162 6 170 5 177 c 0
 4 184 3 190 3 197 c 0
 0 209 20 213 23 201 c 1
EndSplineSet
Validated: 37
EndChar

StartChar: E
Encoding: 5 69 5
Width: 91
VWidth: 249
Flags: HW
LayerCount: 2
Fore
SplineSet
39 88 m 1
 43 88 47 88 51 88 c 1
 63 84 69 103 57 107 c 0
 51 108 44 107 37 108 c 1
 36 115 35 124 35 132 c 0
 34 142 35 152 35 162 c 0
 35 168 34 173 34 179 c 0
 34 184 34 188 34 193 c 0
 34 196 35 199 36 201 c 1
 34 200 30 199 35 201 c 0
 36 201 l 0
 37 201 37 201 36 201 c 1
 42 201 47 199 53 199 c 0
 60 198 67 198 73 199 c 1
 84 196 88 211 81 217 c 0
 77 221 66 219 59 219 c 0
 53 219 47 220 41 221 c 0
 31 221 23 218 18 209 c 0
 13 200 14 189 14 177 c 0
 15 166 14 155 14 144 c 0
 14 139 15 134 15 129 c 0
 15 123 15 117 16 111 c 1
 5 115 -3 97 9 92 c 0
 12 91 15 91 18 90 c 1
 18 86 19 82 20 79 c 0
 22 64 21 48 23 33 c 0
 26 20 39 14 53 13 c 0
 61 12 70 10 78 11 c 1
 91 11 92 31 79 31 c 1
 78 29 74 31 73 31 c 0
 68 32 64 31 59 32 c 0
 54 32 44 32 43 37 c 0
 41 52 42 68 40 83 c 0
 40 85 39 86 39 88 c 1
36 201 m 1
 36 201 l 1
 36 201 l 1
EndSplineSet
Validated: 37
EndChar

StartChar: F
Encoding: 6 70 6
Width: 74
VWidth: 249
Flags: HW
LayerCount: 2
Fore
SplineSet
28 135 m 0
 34 137 39 138 45 140 c 1
 58 140 58 160 45 160 c 1
 39 159 33 157 27 155 c 1
 27 158 26 162 26 165 c 0
 25 169 24 174 24 178 c 0
 23 188 23 200 24 210 c 1
 31 212 41 213 49 213 c 0
 53 213 56 212 60 212 c 0
 71 210 75 224 68 230 c 0
 67 231 66 232 64 232 c 0
 61 232 57 232 54 232 c 0
 49 232 44 232 39 232 c 0
 35 232 31 230 27 230 c 0
 19 230 11 228 7 221 c 0
 -3 201 6 169 7 146 c 0
 6 144 6 141 7 139 c 0
 8 117 5 96 5 74 c 0
 5 67 5 59 6 52 c 0
 7 39 27 40 26 53 c 1
 27 60 26 68 26 75 c 0
 26 81 26 88 27 94 c 0
 27 107 29 119 28 132 c 0
 28 133 28 134 28 135 c 0
25 212 m 2
 26 212 l 0
 24 211 25 211 24 211 c 1
 24 212 24 213 25 213 c 1
 25 212 l 2
EndSplineSet
Validated: 41
EndChar

StartChar: G
Encoding: 7 71 7
Width: 119
VWidth: 249
Flags: HW
LayerCount: 2
Fore
SplineSet
4 64 m 0
 3 74 3 83 4 93 c 0
 4 98 5 104 5 109 c 0
 6 114 6 120 7 125 c 0
 9 140 11 153 13 168 c 0
 14 180 16 190 21 199 c 0
 30 213 46 224 70 220 c 0
 83 218 94 213 101 203 c 0
 105 197 108 190 109 182 c 0
 112 170 93 166 90 178 c 1
 88 183 87 189 84 193 c 0
 80 199 71 200 63 201 c 0
 59 201 56 200 52 200 c 0
 50 200 49 200 47 199 c 1
 48 200 50 200 48 199 c 0
 41 195 36 188 34 180 c 0
 33 176 33 172 33 168 c 0
 31 148 28 128 26 108 c 0
 26 103 24 99 24 94 c 0
 23 80 22 66 25 53 c 0
 25 49 27 46 29 42 c 0
 30 39 34 38 37 36 c 0
 41 34 45 32 49 30 c 0
 53 29 57 28 61 29 c 0
 65 29 68 30 72 31 c 0
 73 31 73 32 73 32 c 1
 65 30 72 31 74 33 c 0
 78 39 77 47 78 55 c 0
 78 60 79 65 79 70 c 0
 79 73 80 76 78 78 c 1
 77 78 75 79 73 79 c 0
 69 79 66 79 62 78 c 0
 48 77 52 77 57 97 c 1
 61 97 66 98 70 98 c 0
 74 98 78 97 82 98 c 0
 87 98 91 100 96 100 c 0
 103 100 109 95 113 89 c 0
 117 80 117 71 117 59 c 0
 117 54 116 48 116 43 c 0
 116 38 116 34 116 29 c 0
 116 25 116 22 116 18 c 0
 115 6 96 7 97 19 c 1
 97 18 l 1
 96 21 97 26 96 29 c 0
 96 34 95 38 96 43 c 0
 96 53 97 62 97 72 c 0
 97 74 96 77 96 79 c 0
 95 80 94 80 92 80 c 0
 84 79 75 78 66 78 c 0
 63 78 59 78 56 78 c 1
 57 84 58 90 58 96 c 0
 58 97 56 95 56 96 c 0
 56 96 63 98 64 98 c 0
 78 99 90 97 96 88 c 0
 101 78 99 68 98 55 c 0
 97 42 96 32 91 23 c 0
 86 16 80 12 71 11 c 0
 53 6 35 13 23 21 c 0
 19 24 15 28 12 33 c 0
 7 41 4 51 4 64 c 0
EndSplineSet
Validated: 37
EndChar

StartChar: H
Encoding: 8 72 8
Width: 111
VWidth: 249
Flags: HW
LayerCount: 2
Fore
SplineSet
88 149 m 0
 88 162 88 175 88 188 c 0
 88 197 88 211 83 216 c 0
 77 221 65 217 67 207 c 1
 67 200 67 194 67 187 c 0
 67 180 67 173 67 166 c 0
 67 160 67 154 67 148 c 0
 67 143 68 137 68 132 c 0
 68 129 68 127 68 124 c 1
 58 122 46 122 35 121 c 0
 34 121 33 121 32 121 c 1
 32 123 32 125 32 127 c 0
 33 139 32 150 32 162 c 0
 32 175 33 187 31 199 c 1
 30 211 10 211 11 198 c 0
 11 191 11 185 11 178 c 0
 11 172 12 166 12 160 c 0
 12 149 13 137 12 126 c 0
 12 124 12 122 12 120 c 1
 2 119 -1 104 10 101 c 0
 11 101 12 101 13 101 c 0
 14 90 14 79 15 68 c 0
 16 59 18 49 17 38 c 0
 17 33 18 27 18 22 c 0
 18 21 18 22 18 20 c 0
 18 8 38 8 38 20 c 0
 38 22 38 21 38 25 c 0
 38 30 38 34 38 39 c 0
 38 50 36 60 35 70 c 0
 34 80 34 90 33 100 c 0
 33 101 l 1
 45 102 57 102 68 104 c 1
 69 93 70 81 71 70 c 0
 71 55 74 41 77 27 c 0
 78 23 78 19 78 15 c 0
 78 14 76 11 77 14 c 1
 72 3 90 -5 95 6 c 0
 97 9 98 13 98 17 c 0
 97 31 94 44 92 58 c 0
 91 63 91 68 91 73 c 0
 90 84 88 95 88 106 c 1
 91 106 94 106 96 106 c 0
 108 103 113 123 101 126 c 0
 100 126 99 126 98 126 c 0
 95 126 91 126 88 126 c 1
 88 134 88 141 88 149 c 0
EndSplineSet
Validated: 41
EndChar

StartChar: I
Encoding: 9 73 9
Width: 71
VWidth: 249
Flags: HW
LayerCount: 2
Fore
SplineSet
41 209 m 1
 46 209 51 210 56 211 c 1
 67 208 71 222 64 228 c 0
 60 231 54 230 49 229 c 0
 43 229 38 229 32 229 c 0
 26 228 19 228 13 225 c 1
 0 226 -1 207 12 206 c 0
 15 206 17 207 20 207 c 1
 22 183 19 157 23 135 c 0
 23 130 23 126 24 121 c 0
 24 116 26 112 26 107 c 0
 26 91 28 76 30 62 c 0
 31 58 31 52 32 48 c 0
 32 44 33 39 33 35 c 1
 28 35 24 35 19 35 c 1
 7 38 2 19 14 16 c 0
 28 14 43 14 57 14 c 1
 69 11 73 30 61 33 c 0
 59 33 57 33 55 33 c 0
 54 33 54 33 53 33 c 1
 53 34 53 36 53 37 c 0
 52 52 49 65 48 79 c 0
 47 90 47 99 46 110 c 0
 45 115 44 119 44 124 c 0
 43 138 42 152 41 167 c 0
 41 172 41 176 41 181 c 0
 41 190 42 200 41 209 c 1
EndSplineSet
Validated: 41
EndChar

StartChar: J
Encoding: 10 74 10
Width: 92
VWidth: 249
Flags: HW
LayerCount: 2
Fore
SplineSet
81 223 m 1
 74 221 65 221 57 221 c 0
 51 221 43 220 37 220 c 0
 29 220 22 220 14 218 c 1
 2 220 -1 201 11 199 c 1
 23 199 36 200 48 200 c 1
 50 183 56 169 56 150 c 0
 57 138 56 126 57 115 c 0
 57 104 58 93 59 82 c 0
 60 77 60 72 60 67 c 0
 59 53 59 40 49 34 c 0
 48 35 l 0
 43 40 39 46 37 54 c 0
 37 55 37 57 37 58 c 0
 37 71 17 70 17 57 c 0
 17 48 20 40 24 33 c 0
 27 28 30 24 34 20 c 0
 43 14 49 13 59 18 c 0
 65 22 70 26 73 32 c 0
 80 46 81 65 79 85 c 0
 78 91 78 97 78 103 c 0
 78 114 77 124 77 135 c 0
 77 148 77 159 75 170 c 0
 73 181 71 192 69 202 c 1
 73 202 76 203 80 204 c 0
 93 203 94 222 81 223 c 1
50 35 m 1
 50 35 50 34 49 34 c 1
 50 34 50 35 50 35 c 1
49 34 m 1
 48 33 47 33 46 33 c 1
 47 34 48 34 49 34 c 1
EndSplineSet
Validated: 37
EndChar

StartChar: K
Encoding: 11 75 11
Width: 99
VWidth: 249
Flags: HW
LayerCount: 2
Fore
SplineSet
23 208 m 1
 27 197 27 184 28 171 c 0
 28 166 28 160 28 155 c 0
 28 150 28 145 28 140 c 0
 28 121 29 101 31 84 c 0
 32 74 32 65 32 55 c 0
 32 50 33 46 33 41 c 0
 34 35 35 28 34 22 c 0
 33 18 16 13 14 20 c 0
 9 37 9 58 9 79 c 0
 9 84 10 89 10 94 c 0
 10 98 10 103 10 107 c 0
 9 116 10 125 10 134 c 0
 10 140 10 145 13 150 c 1
 21 159 24 158 31 160 c 0
 32 160 37 162 37 162 c 1
 36 162 33 160 33 160 c 1
 34 160 37 162 37 162 c 2
 41 164 45 165 49 168 c 0
 53 171 57 175 61 178 c 0
 65 181 67 184 70 188 c 0
 71 189 77 201 77 201 c 0
 77 200 l 0
 82 197 88 195 93 192 c 1
 89 187 85 181 81 176 c 0
 74 167 65 159 54 154 c 0
 51 153 49 152 46 151 c 0
 42 150 38 150 35 149 c 1
 38 150 43 152 42 157 c 0
 41 165 36 166 42 164 c 1
 46 164 51 162 54 160 c 0
 58 157 63 153 67 149 c 0
 74 142 78 133 81 122 c 0
 83 113 82 104 83 94 c 0
 83 90 84 85 85 81 c 0
 86 71 87 62 88 53 c 0
 88 48 88 44 89 39 c 0
 89 31 95 22 92 13 c 0
 89 2 71 7 74 18 c 1
 74 17 74 15 74 15 c 2
 74 15 73 21 72 21 c 0
 71 26 69 30 69 35 c 0
 68 40 68 45 68 50 c 0
 67 63 64 77 63 91 c 0
 63 95 63 101 63 105 c 0
 62 119 59 129 52 136 c 0
 49 139 45 142 42 144 c 0
 39 145 35 146 32 147 c 0
 23 151 22 156 26 164 c 0
 28 168 35 169 40 170 c 0
 42 170 50 174 41 170 c 1
 45 172 49 173 52 176 c 0
 56 178 59 183 63 186 c 0
 67 190 69 194 72 198 c 0
 73 199 77 205 78 205 c 0
 94 203 98 205 96 195 c 0
 94 190 92 185 89 180 c 0
 86 174 82 169 77 165 c 0
 73 161 69 158 64 155 c 0
 59 152 54 148 49 146 c 0
 41 143 43 143 31 140 c 1
 32 140 35 142 35 142 c 1
 33 141 30 139 28 139 c 0
 26 139 32 140 33 141 c 0
 34 141 30 140 30 141 c 0
 30 145 30 136 30 136 c 0
 30 127 29 118 30 109 c 0
 30 104 29 100 30 95 c 0
 30 90 30 85 30 80 c 0
 30 65 30 50 31 36 c 0
 32 33 32 29 33 26 c 0
 35 18 34 24 15 19 c 0
 15 19 14 24 14 25 c 0
 14 30 14 35 13 39 c 0
 13 44 12 49 12 54 c 0
 13 68 10 82 10 95 c 0
 10 100 11 105 10 109 c 0
 10 119 8 129 8 138 c 0
 8 143 8 148 8 153 c 0
 8 164 8 175 6 185 c 0
 5 191 4 198 3 204 c 0
 0 216 20 220 23 208 c 1
EndSplineSet
Validated: 37
EndChar

StartChar: L
Encoding: 12 76 12
Width: 64
VWidth: 249
Flags: HW
LayerCount: 2
Fore
SplineSet
4 152 m 0
 5 163 4 175 4 186 c 0
 4 193 3 200 4 207 c 1
 3 220 23 221 24 208 c 1
 25 196 24 182 24 169 c 0
 24 163 25 158 25 152 c 0
 25 136 25 120 25 104 c 0
 25 99 25 93 25 88 c 0
 25 77 26 66 27 56 c 0
 28 45 28 34 28 23 c 0
 28 21 28 22 28 22 c 1
 28 23 28 23 29 23 c 0
 31 23 34 23 36 23 c 0
 41 22 45 22 49 23 c 0
 53 23 50 23 53 23 c 0
 66 21 64 1 51 3 c 1
 40 2 24 2 16 7 c 0
 11 11 8 17 8 24 c 0
 9 34 7 43 7 53 c 0
 6 64 5 76 4 87 c 0
 4 93 5 97 5 103 c 0
 5 109 5 114 5 120 c 0
 5 125 5 131 5 136 c 0
 5 141 4 147 4 152 c 0
EndSplineSet
Validated: 37
EndChar

StartChar: M
Encoding: 13 77 13
Width: 105
VWidth: 249
Flags: HW
LayerCount: 2
Fore
SplineSet
77 26 m 0
 78 34 78 43 79 52 c 0
 79 57 78 62 78 67 c 0
 78 72 78 77 78 82 c 0
 78 87 77 93 77 98 c 0
 78 114 78 130 79 146 c 0
 79 163 81 180 82 197 c 0
 82 198 82 208 84 204 c 0
 85 203 86 201 88 201 c 0
 99 200 100 208 96 201 c 0
 90 191 83 181 78 170 c 0
 76 165 72 161 70 156 c 0
 68 152 67 147 64 143 c 0
 56 133 47 133 40 143 c 0
 38 147 36 153 34 157 c 0
 27 171 18 182 12 197 c 0
 12 198 9 204 11 202 c 1
 15 203 19 203 23 205 c 0
 25 206 24 210 24 206 c 0
 24 205 24 204 24 203 c 0
 24 198 23 195 23 190 c 0
 23 185 23 179 23 174 c 0
 23 169 24 164 24 159 c 0
 24 154 24 148 24 143 c 0
 24 138 24 131 24 126 c 0
 24 121 25 116 25 111 c 0
 25 106 25 101 25 96 c 0
 25 91 25 86 25 81 c 0
 24 70 25 59 26 49 c 0
 27 42 27 34 27 27 c 1
 29 14 10 12 8 25 c 1
 6 32 5 40 5 47 c 0
 4 58 5 70 5 81 c 0
 5 86 5 89 5 94 c 0
 5 99 5 104 5 109 c 0
 5 125 4 142 4 158 c 0
 4 163 3 168 3 173 c 0
 3 178 3 183 3 188 c 0
 3 193 4 197 4 202 c 0
 4 205 5 215 8 216 c 0
 12 218 17 217 22 218 c 1
 26 215 29 210 31 205 c 0
 35 196 39 188 44 180 c 0
 47 175 51 170 53 165 c 0
 55 161 56 156 58 151 c 1
 57 156 51 154 47 153 c 1
 49 156 50 159 51 162 c 0
 53 167 56 171 59 176 c 0
 64 188 70 199 77 209 c 0
 82 215 87 220 96 218 c 0
 98 218 99 215 100 214 c 0
 103 209 102 203 102 197 c 0
 101 175 99 154 99 131 c 0
 99 120 99 110 98 99 c 0
 97 84 99 68 99 53 c 0
 99 42 98 28 96 21 c 0
 93 9 74 14 77 26 c 1
 77 24 77 24 77 26 c 0
EndSplineSet
Validated: 37
EndChar

StartChar: N
Encoding: 14 78 14
Width: 86
VWidth: 249
Flags: HW
LayerCount: 2
Fore
SplineSet
4 48 m 0
 5 55 5 60 5 67 c 0
 5 72 5 78 5 83 c 0
 5 88 5 94 5 99 c 0
 5 104 5 110 5 115 c 0
 5 131 8 145 7 161 c 0
 7 166 7 172 7 177 c 0
 7 181 7 186 7 190 c 0
 7 196 7 201 9 206 c 0
 16 218 26 215 32 205 c 0
 38 193 39 180 42 166 c 0
 44 154 47 142 49 130 c 0
 50 118 54 108 56 97 c 0
 58 91 59 84 60 78 c 0
 63 68 68 58 71 48 c 0
 72 44 73 39 75 35 c 1
 74 36 74 37 73 37 c 0
 64 36 65 37 62 33 c 1
 61 27 62 37 62 38 c 0
 62 42 62 46 62 50 c 0
 61 72 63 92 63 113 c 0
 63 124 62 134 61 144 c 0
 58 163 58 186 60 206 c 0
 60 207 61 208 61 209 c 0
 62 222 81 220 80 207 c 0
 79 202 80 196 79 191 c 0
 79 181 79 172 79 162 c 0
 80 157 80 152 81 147 c 0
 82 137 83 126 83 114 c 0
 83 109 83 104 83 99 c 0
 83 88 82 78 82 67 c 0
 82 62 82 56 82 51 c 0
 82 47 82 43 82 39 c 0
 82 34 82 24 78 22 c 0
 67 16 62 19 57 28 c 1
 53 37 50 47 46 56 c 0
 40 73 35 90 32 110 c 0
 29 127 26 145 22 161 c 0
 19 173 17 185 14 197 c 0
 14 198 15 196 16 196 c 0
 21 196 27 194 28 200 c 0
 27 202 27 193 27 192 c 0
 27 187 27 182 27 177 c 0
 27 172 27 168 27 163 c 0
 27 158 28 153 28 148 c 0
 28 133 26 117 26 101 c 0
 26 96 25 90 25 85 c 0
 25 80 25 74 25 69 c 0
 25 54 26 39 23 26 c 1
 23 13 3 13 3 26 c 0
 3 33 3 41 4 48 c 0
EndSplineSet
Validated: 37
EndChar

StartChar: Ntilde
Encoding: 15 209 15
Width: 116
VWidth: 249
Flags: HW
LayerCount: 2
Fore
SplineSet
62 214 m 0
 58 210 56 203 53 198 c 0
 51 193 48 190 45 186 c 0
 44 185 40 179 37 180 c 0
 32 184 33 193 33 201 c 0
 33 214 13 214 13 201 c 1
 11 187 16 173 24 166 c 0
 32 159 39 159 49 164 c 0
 54 167 59 171 63 176 c 0
 67 181 71 186 73 192 c 0
 75 195 75 199 78 202 c 1
 77 202 76 201 75 201 c 0
 74 201 79 204 78 202 c 1
 81 203 85 197 86 196 c 0
 89 191 92 184 95 179 c 1
 100 167 118 175 113 187 c 1
 109 202 101 215 87 220 c 0
 84 221 81 221 79 221 c 0
 73 221 67 219 62 214 c 0
78 202 m 1
 79 202 l 1
 78 202 l 1
40 181 m 0
 40 181 40 180 39 180 c 1
 40 180 40 181 40 181 c 0
38 180 m 1
 37 179 36 179 35 179 c 1
 36 180 37 180 38 180 c 1
93 152 m 0
 92 138 92 119 92 102 c 0
 92 82 90 62 89 43 c 1
 84 50 78 56 74 64 c 0
 72 69 69 73 67 78 c 0
 63 89 58 98 54 109 c 0
 51 115 49 122 46 127 c 0
 40 136 23 174 6 152 c 1
 2 143 3 133 3 122 c 0
 3 118 3 113 3 109 c 0
 3 88 3 66 3 45 c 0
 3 38 3 32 4 25 c 1
 5 13 25 13 24 26 c 0
 24 33 24 39 24 46 c 0
 24 52 24 59 24 65 c 0
 24 75 23 86 23 96 c 0
 23 101 23 105 23 110 c 0
 23 115 23 119 23 124 c 0
 23 125 l 1
 33 108 41 89 48 70 c 0
 50 65 53 60 56 55 c 0
 60 46 68 38 73 30 c 0
 76 25 79 21 84 18 c 0
 94 12 102 17 106 26 c 0
 108 31 109 37 109 42 c 0
 109 48 111 53 111 59 c 0
 111 64 111 70 111 75 c 0
 112 79 111 84 112 88 c 0
 112 93 112 98 112 103 c 0
 112 108 112 113 112 118 c 0
 113 123 112 127 113 132 c 0
 113 139 114 149 114 153 c 0
 114 159 108 162 103 162 c 0
 98 162 93 158 93 152 c 0
24 144 m 1
 24 145 l 1
 24 144 l 1
96 34 m 1
 97 34 97 33 97 32 c 1
 96 32 97 33 96 34 c 1
EndSplineSet
Validated: 37
EndChar

StartChar: O
Encoding: 16 79 16
Width: 101
VWidth: 249
Flags: HW
LayerCount: 2
Fore
SplineSet
46 202 m 0
 45 202 37 199 37 199 c 1
 38 200 39 200 40 200 c 1
 40 200 39 199 38 199 c 0
 27 195 28 176 27 162 c 0
 27 151 25 141 25 130 c 0
 25 125 24 119 24 114 c 0
 24 110 23 104 23 100 c 0
 23 91 23 83 25 75 c 0
 26 70 27 67 29 62 c 0
 31 57 33 52 35 47 c 0
 37 43 40 41 43 38 c 0
 48 33 55 30 63 33 c 1
 54 30 63 33 65 36 c 0
 72 45 72 62 73 77 c 0
 73 82 72 88 72 93 c 0
 72 110 74 125 75 141 c 0
 76 152 78 163 79 174 c 0
 80 184 76 193 72 200 c 0
 71 201 70 204 68 203 c 0
 68 202 68 203 66 203 c 0
 54 206 58 225 70 222 c 1
 78 222 86 217 90 209 c 0
 95 199 99 189 99 175 c 0
 99 169 98 164 98 158 c 0
 96 142 94 126 93 109 c 0
 93 104 92 100 92 95 c 0
 92 89 93 83 93 77 c 0
 92 58 92 41 83 28 c 0
 78 20 71 15 62 13 c 0
 47 11 37 16 29 24 c 0
 24 28 19 33 16 39 c 0
 10 53 4 67 3 85 c 0
 3 89 3 95 3 99 c 0
 3 104 4 108 4 113 c 0
 5 124 5 135 6 146 c 0
 6 151 6 157 6 162 c 0
 7 175 7 187 11 198 c 0
 14 204 19 211 25 215 c 0
 38 222 56 226 71 219 c 0
 82 213 72 195 61 201 c 1
 56 202 51 203 46 202 c 0
EndSplineSet
Validated: 37
EndChar

StartChar: P
Encoding: 17 80 17
Width: 93
VWidth: 249
Flags: HW
LayerCount: 2
Fore
SplineSet
5 171 m 0
 5 183 4 195 4 207 c 0
 3 220 23 221 24 208 c 1
 25 202 25 196 25 190 c 0
 24 167 29 144 29 121 c 0
 29 110 30 99 30 87 c 0
 30 76 30 65 30 54 c 0
 30 44 29 35 28 25 c 0
 28 12 28 16 8 16 c 1
 7 21 8 26 8 31 c 0
 7 42 7 51 7 62 c 0
 7 68 7 74 7 80 c 0
 7 85 7 90 7 95 c 0
 7 104 6 114 5 123 c 0
 3 136 3 150 3 165 c 0
 3 170 4 174 4 179 c 0
 4 185 4 190 5 196 c 0
 10 214 32 224 54 217 c 1
 72 215 84 200 89 184 c 0
 94 162 83 147 72 136 c 0
 68 133 65 129 60 127 c 0
 53 124 45 122 35 123 c 0
 28 124 20 128 15 132 c 0
 6 140 19 154 28 146 c 1
 32 145 36 142 40 142 c 0
 44 142 47 143 51 144 c 1
 41 140 55 145 56 147 c 0
 60 150 62 154 65 158 c 0
 68 161 69 164 70 168 c 0
 70 171 71 175 70 179 c 0
 69 182 68 185 66 188 c 0
 64 191 60 193 57 195 c 0
 53 197 50 198 46 199 c 0
 42 200 38 199 34 199 c 0
 32 199 27 197 35 200 c 1
 35 200 29 198 31 198 c 1
 21 196 24 176 23 166 c 0
 23 161 23 157 23 152 c 0
 23 143 23 134 25 125 c 0
 25 120 26 115 26 110 c 0
 26 105 27 101 27 96 c 0
 27 91 27 87 27 82 c 0
 27 76 27 70 27 64 c 0
 27 53 27 43 28 32 c 0
 28 28 28 24 28 20 c 1
 7 15 8 11 8 25 c 0
 9 34 9 43 10 53 c 0
 10 58 10 64 10 69 c 0
 10 74 9 80 9 85 c 0
 9 97 9 108 8 119 c 0
 8 125 7 130 7 136 c 0
 7 148 6 160 5 171 c 0
EndSplineSet
Validated: 37
EndChar

StartChar: Q
Encoding: 18 81 18
Width: 100
VWidth: 249
Flags: HW
LayerCount: 2
Fore
SplineSet
97 101 m 0
 98 112 97 122 97 133 c 0
 97 139 97 143 97 149 c 0
 97 161 95 173 91 182 c 0
 89 186 87 190 84 194 c 1
 84 200 79 205 75 208 c 0
 68 213 57 219 46 217 c 0
 38 215 32 210 26 205 c 0
 16 197 11 183 7 170 c 0
 3 154 3 136 3 117 c 0
 3 112 3 106 3 101 c 0
 3 96 4 91 4 86 c 0
 4 81 4 76 4 71 c 0
 4 65 6 58 7 52 c 0
 8 45 12 40 15 34 c 0
 18 29 24 25 29 21 c 0
 41 14 55 14 67 20 c 1
 68 17 69 14 71 12 c 0
 76 1 94 10 89 21 c 0
 87 26 85 30 83 34 c 1
 87 40 90 46 93 52 c 0
 95 58 96 64 97 70 c 0
 97 75 97 81 97 86 c 0
 97 91 97 96 97 101 c 0
60 189 m 1
 72 183 76 166 76 148 c 0
 76 142 77 138 77 132 c 0
 77 126 77 121 77 115 c 0
 77 110 77 104 77 99 c 0
 77 83 79 69 73 57 c 1
 72 59 70 62 69 64 c 0
 64 76 46 69 51 57 c 0
 53 51 56 44 59 38 c 1
 54 36 l 1
 55 36 57 37 58 37 c 0
 60 37 53 34 53 35 c 1
 49 35 46 35 42 37 c 0
 39 39 35 42 33 45 c 0
 31 49 28 52 27 56 c 0
 25 66 24 76 24 87 c 0
 24 92 24 97 24 102 c 0
 24 124 22 149 27 167 c 0
 30 177 35 187 42 193 c 0
 43 193 44 195 46 196 c 1
 48 190 55 186 60 189 c 1
60 189 m 1
 58 189 57 189 57 191 c 1
 58 191 59 189 60 189 c 1
EndSplineSet
Validated: 41
EndChar

StartChar: R
Encoding: 19 82 19
Width: 102
VWidth: 249
Flags: HW
LayerCount: 2
Fore
SplineSet
8 143 m 0
 8 153 7 163 7 173 c 0
 7 178 7 184 8 189 c 0
 11 199 17 202 27 204 c 0
 32 205 37 204 42 205 c 0
 71 207 94 194 94 165 c 0
 94 152 84 143 75 137 c 0
 66 131 54 129 42 127 c 0
 38 126 33 124 29 124 c 0
 20 122 34 143 34 143 c 0
 35 143 36 143 37 143 c 0
 42 143 46 144 51 144 c 0
 66 144 75 133 80 122 c 0
 82 117 85 111 86 106 c 0
 88 97 87 88 90 80 c 0
 93 71 95 62 96 51 c 0
 97 38 98 24 99 10 c 0
 99 7 100 3 99 0 c 0
 99 -12 79 -12 79 -0 c 0
 79 7 79 14 78 21 c 0
 78 31 77 39 76 48 c 0
 76 52 75 56 74 60 c 0
 72 69 69 79 68 89 c 0
 67 93 66 97 66 101 c 0
 64 109 61 118 56 123 c 0
 54 125 51 124 48 124 c 0
 46 124 26 123 26 125 c 0
 26 136 25 143 31 144 c 0
 35 145 39 145 43 146 c 0
 47 147 51 148 55 149 c 0
 57 150 63 152 55 149 c 1
 55 149 62 151 60 151 c 1
 63 152 67 156 70 158 c 0
 75 161 75 168 72 174 c 0
 68 184 53 187 39 185 c 0
 35 185 30 185 26 184 c 0
 21 183 26 184 29 186 c 1
 29 187 29 188 28 187 c 0
 27 183 29 178 28 174 c 0
 28 169 28 164 28 159 c 0
 28 154 28 150 28 145 c 0
 28 135 30 125 30 115 c 0
 31 94 31 71 29 50 c 0
 29 45 30 40 29 35 c 0
 29 30 29 26 28 21 c 0
 27 13 28 18 8 17 c 0
 8 17 7 22 7 23 c 0
 6 28 7 33 7 38 c 0
 7 55 9 70 9 87 c 0
 9 98 9 109 8 119 c 0
 7 132 6 145 5 158 c 0
 4 165 3 172 3 179 c 1
 0 191 20 195 23 183 c 0
 25 176 25 168 25 161 c 0
 27 137 29 113 29 88 c 0
 29 76 29 65 28 54 c 0
 28 49 27 44 27 39 c 0
 27 35 27 30 27 26 c 0
 27 24 27 22 27 20 c 0
 26 14 8 16 9 22 c 0
 9 26 8 30 8 34 c 0
 9 39 9 44 9 49 c 0
 9 65 10 81 10 98 c 0
 10 108 10 118 9 127 c 0
 8 132 8 138 8 143 c 0
EndSplineSet
Validated: 37
EndChar

StartChar: S
Encoding: 20 83 20
Width: 91
VWidth: 249
Flags: HW
LayerCount: 2
Fore
SplineSet
62 186 m 0
 61 191 58 196 56 200 c 0
 54 203 51 205 48 207 c 0
 46 208 43 210 41 208 c 0
 40 206 34 206 42 208 c 1
 38 206 l 0
 29 199 23 189 24 172 c 0
 24 169 25 166 27 163 c 0
 30 160 33 157 36 154 c 0
 43 146 52 138 59 130 c 0
 73 114 82 96 87 72 c 0
 88 67 89 62 89 57 c 0
 88 44 78 36 71 29 c 0
 63 20 47 10 30 18 c 0
 21 23 15 33 10 42 c 0
 5 53 2 68 4 83 c 0
 5 96 25 95 24 82 c 1
 23 79 23 76 23 73 c 0
 23 69 23 65 24 61 c 0
 24 58 26 54 27 51 c 0
 29 47 31 43 34 40 c 0
 36 38 37 35 40 34 c 0
 43 33 51 36 43 33 c 1
 47 35 51 36 54 39 c 0
 57 42 60 46 64 49 c 0
 66 51 68 53 69 56 c 0
 70 60 69 64 68 68 c 0
 65 84 58 96 51 107 c 0
 46 115 39 122 33 129 c 0
 29 133 26 136 22 140 c 0
 17 144 12 148 9 153 c 0
 2 167 2 191 10 204 c 0
 16 215 28 226 43 228 c 0
 50 228 56 226 61 222 c 0
 66 218 71 215 74 209 c 0
 79 199 86 187 86 173 c 1
 89 161 69 157 66 169 c 0
 65 175 64 180 62 186 c 0
EndSplineSet
Validated: 37
EndChar

StartChar: T
Encoding: 21 84 21
Width: 114
VWidth: 249
Flags: HW
LayerCount: 2
Fore
SplineSet
63 197 m 0
 76 198 89 196 102 198 c 1
 112 198 114 211 108 216 c 0
 107 217 105 218 103 218 c 0
 101 217 98 217 95 217 c 0
 90 217 86 217 81 216 c 0
 76 216 72 216 67 216 c 0
 56 215 45 218 34 217 c 0
 27 216 20 217 13 215 c 1
 0 216 -1 196 12 195 c 0
 21 195 29 197 38 197 c 1
 38 192 38 187 38 182 c 0
 38 176 38 170 38 164 c 0
 38 158 39 153 39 147 c 0
 39 142 39 137 39 132 c 0
 38 116 39 100 41 85 c 0
 44 64 51 46 50 22 c 0
 50 21 51 21 51 20 c 0
 51 8 70 9 70 21 c 0
 71 25 70 31 70 36 c 0
 69 54 63 70 61 88 c 0
 60 98 59 109 58 119 c 0
 58 129 59 139 59 149 c 0
 59 154 59 160 59 165 c 0
 59 171 59 178 59 184 c 0
 59 188 59 193 59 197 c 1
 60 197 62 197 63 197 c 0
EndSplineSet
Validated: 41
EndChar

StartChar: U
Encoding: 22 85 22
Width: 101
VWidth: 249
Flags: HW
LayerCount: 2
Fore
SplineSet
26 202 m 1
 29 176 23 151 23 125 c 0
 23 114 23 104 24 94 c 0
 25 85 27 77 28 68 c 0
 29 63 29 58 31 54 c 0
 32 50 36 48 39 45 c 0
 44 40 50 37 58 40 c 1
 50 37 54 39 56 40 c 0
 68 48 71 63 73 80 c 0
 73 85 74 91 74 96 c 0
 76 106 77 117 77 128 c 0
 77 133 78 139 78 144 c 0
 78 149 78 155 78 160 c 0
 79 170 77 179 77 189 c 0
 77 195 77 202 78 208 c 0
 79 221 98 220 97 207 c 0
 97 202 99 196 98 191 c 0
 98 181 99 171 98 161 c 0
 98 156 98 150 98 145 c 0
 97 128 96 112 94 96 c 0
 93 85 93 75 91 65 c 0
 89 52 85 42 78 34 c 0
 72 28 66 23 57 21 c 0
 42 19 32 23 24 31 c 0
 19 36 14 41 12 47 c 0
 10 53 9 58 8 64 c 0
 7 78 3 92 3 108 c 0
 3 113 3 119 3 124 c 0
 3 137 4 148 5 160 c 0
 5 167 6 173 6 180 c 0
 6 187 5 194 6 201 c 1
 5 214 25 215 26 202 c 1
EndSplineSet
Validated: 37
EndChar

StartChar: V
Encoding: 23 86 23
Width: 106
VWidth: 249
Flags: HW
LayerCount: 2
Fore
SplineSet
30 187 m 0
 35 168 41 148 45 127 c 0
 47 117 47 108 49 98 c 0
 51 80 55 63 58 46 c 0
 59 42 60 38 61 34 c 0
 63 29 60 37 57 36 c 0
 54 35 52 33 50 32 c 1
 51 35 51 38 52 41 c 0
 56 64 61 86 66 109 c 0
 70 134 75 158 78 184 c 0
 79 194 83 205 84 215 c 1
 84 227 103 227 103 215 c 1
 104 209 102 203 101 198 c 0
 100 193 99 189 98 184 c 0
 96 169 94 154 92 139 c 0
 91 128 87 118 86 107 c 0
 85 102 84 97 83 91 c 0
 79 74 75 56 72 38 c 0
 71 32 70 27 66 22 c 1
 63 20 60 17 57 16 c 0
 51 14 44 23 42 28 c 0
 39 37 37 46 35 56 c 0
 34 62 32 69 31 75 c 0
 29 86 28 97 27 109 c 0
 26 120 23 130 21 141 c 0
 18 154 15 167 11 180 c 0
 8 187 6 195 4 203 c 0
 0 215 19 220 23 208 c 1
 26 201 28 194 30 187 c 0
EndSplineSet
Validated: 37
EndChar

StartChar: W
Encoding: 24 87 24
Width: 106
VWidth: 249
Flags: HW
LayerCount: 2
Fore
SplineSet
80 35 m 0
 80 45 79 55 79 65 c 0
 79 71 80 76 80 82 c 0
 80 87 80 92 80 97 c 0
 79 119 80 141 82 161 c 0
 82 166 83 170 83 175 c 0
 83 184 84 193 84 202 c 0
 84 215 104 215 104 202 c 1
 104 198 103 194 103 190 c 0
 102 185 103 181 103 176 c 0
 103 166 102 155 101 145 c 0
 101 139 100 134 100 128 c 0
 99 118 99 108 100 98 c 0
 100 93 100 88 100 83 c 0
 100 72 99 62 99 51 c 0
 99 46 100 41 100 36 c 0
 100 31 99 26 97 21 c 0
 96 20 96 18 95 17 c 0
 86 12 78 14 72 21 c 0
 66 30 62 41 59 52 c 0
 57 56 56 61 55 65 c 0
 54 68 53 71 52 74 c 1
 56 70 63 70 66 75 c 1
 66 75 63 75 65 75 c 1
 63 71 61 67 60 63 c 0
 58 52 56 42 53 32 c 0
 52 29 50 19 47 18 c 0
 44 16 40 16 36 15 c 1
 29 19 29 23 27 30 c 0
 26 35 24 39 23 44 c 0
 22 49 21 55 21 60 c 0
 21 70 19 80 18 89 c 0
 17 99 16 108 15 118 c 0
 13 135 10 151 7 168 c 0
 6 176 3 184 3 192 c 1
 0 204 20 208 23 196 c 1
 29 178 29 156 33 136 c 0
 35 127 34 117 36 107 c 0
 38 97 38 87 39 77 c 0
 41 68 40 58 42 49 c 0
 43 44 45 40 46 35 c 0
 48 25 48 29 43 33 c 1
 40 32 36 32 33 31 c 0
 32 31 33 29 32 28 c 0
 32 28 32 29 32 30 c 0
 34 42 37 53 40 65 c 0
 41 71 43 76 46 81 c 0
 50 88 59 94 66 87 c 0
 70 83 72 76 74 71 c 0
 76 67 76 63 78 59 c 0
 81 49 85 38 91 31 c 0
 91 31 l 1
 89 35 84 32 81 31 c 0
 80 31 80 30 80 29 c 0
 80 27 80 35 80 35 c 0
EndSplineSet
Validated: 37
EndChar

StartChar: X
Encoding: 25 88 25
Width: 125
VWidth: 249
Flags: HW
LayerCount: 2
Fore
SplineSet
85 216 m 0
 82 211 79 205 77 199 c 0
 73 189 69 179 65 168 c 0
 62 160 59 153 56 145 c 1
 51 154 47 163 43 173 c 0
 37 187 31 202 22 214 c 1
 22 214 l 1
 17 226 -1 218 4 206 c 0
 7 199 10 191 14 184 c 0
 20 172 25 159 31 147 c 0
 36 138 41 129 46 119 c 1
 39 100 34 80 29 60 c 0
 28 55 26 49 23 44 c 0
 20 38 16 32 14 26 c 0
 10 14 29 8 33 20 c 1
 41 30 45 43 49 57 c 0
 50 62 52 67 53 72 c 0
 55 79 57 86 59 93 c 1
 67 78 75 65 84 51 c 0
 87 46 90 42 94 37 c 0
 98 33 100 27 104 23 c 0
 105 23 l 1
 110 12 127 21 122 32 c 0
 118 42 107 52 101 62 c 0
 98 67 95 71 92 76 c 0
 82 89 75 104 68 120 c 1
 70 125 72 130 74 135 c 0
 75 140 77 145 79 150 c 0
 82 160 86 170 90 179 c 0
 93 184 95 189 97 194 c 0
 100 200 103 205 105 211 c 0
 107 218 100 223 94 223 c 0
 90 223 86 221 85 216 c 0
EndSplineSet
Validated: 41
EndChar

StartChar: Y
Encoding: 26 89 26
Width: 114
VWidth: 249
Flags: HW
LayerCount: 2
Fore
SplineSet
68 96 m 0
 68 107 69 118 69 129 c 1
 75 133 79 140 82 147 c 0
 86 157 94 165 98 175 c 0
 100 180 103 185 105 190 c 0
 107 197 116 208 107 214 c 0
 102 217 94 216 92 209 c 0
 92 209 l 0
 89 205 88 200 86 196 c 0
 83 191 80 187 78 182 c 0
 75 177 73 172 70 167 c 0
 66 161 64 154 60 148 c 1
 52 160 42 170 34 182 c 0
 30 188 27 194 22 200 c 1
 16 211 -2 202 4 191 c 0
 7 184 12 178 16 172 c 0
 20 166 23 160 28 155 c 0
 31 151 35 147 38 143 c 0
 41 139 45 134 49 130 c 1
 48 119 48 107 48 95 c 0
 48 90 48 86 48 81 c 0
 47 66 47 50 47 35 c 0
 47 30 46 25 47 20 c 0
 47 17 47 14 47 11 c 0
 48 -1 68 0 67 12 c 0
 68 16 67 19 67 23 c 0
 67 28 67 32 67 37 c 0
 67 52 68 68 68 83 c 0
 68 88 68 91 68 96 c 0
63 143 m 1
 62 144 62 145 61 146 c 1
 62 146 63 144 63 143 c 1
EndSplineSet
Validated: 41
EndChar

StartChar: Z
Encoding: 27 90 27
Width: 114
VWidth: 249
Flags: HW
LayerCount: 2
Fore
SplineSet
97 218 m 0
 93 221 85 221 79 219 c 0
 74 218 70 218 65 218 c 0
 60 217 55 218 50 218 c 0
 45 217 40 219 35 218 c 0
 29 218 22 218 16 218 c 1
 4 223 -3 205 9 200 c 0
 21 197 34 198 47 198 c 0
 52 198 57 198 62 198 c 0
 69 198 74 199 82 200 c 1
 78 187 72 174 67 161 c 0
 61 146 53 132 47 117 c 1
 41 116 36 115 30 114 c 1
 17 115 16 96 29 95 c 0
 33 95 36 95 40 96 c 1
 38 92 38 87 36 83 c 0
 33 74 30 64 27 54 c 0
 25 50 22 45 20 41 c 0
 17 36 15 32 13 27 c 0
 10 19 15 11 22 8 c 0
 31 5 41 8 50 9 c 0
 63 12 78 11 92 12 c 0
 95 12 99 12 102 12 c 0
 114 11 115 30 103 31 c 1
 107 30 96 31 96 31 c 0
 91 31 86 31 81 31 c 0
 76 30 71 31 66 31 c 0
 61 30 56 30 51 29 c 0
 47 28 43 28 39 27 c 0
 38 27 36 26 35 26 c 1
 39 34 43 42 46 51 c 0
 49 61 52 69 56 78 c 0
 58 85 60 92 62 98 c 1
 67 98 65 99 69 99 c 0
 82 98 85 117 72 118 c 0
 71 118 70 118 70 118 c 1
 73 126 77 134 80 142 c 0
 82 147 84 152 86 157 c 0
 90 167 96 176 99 187 c 0
 102 197 107 211 97 218 c 0
EndSplineSet
Validated: 41
EndChar

StartChar: Aacute
Encoding: 29 193 29
Width: 119
VWidth: 249
Flags: HW
LayerCount: 2
Fore
SplineSet
95 233 m 0
 102 244 85 255 78 244 c 1
 70 237 62 227 56 218 c 0
 49 207 66 197 73 208 c 1
 79 213 84 219 88 225 c 0
 90 228 93 230 95 233 c 0
74 180 m 1
 65 185 56 186 48 180 c 0
 38 173 31 162 26 151 c 0
 22 141 17 131 15 120 c 0
 11 106 10 90 8 74 c 0
 7 64 8 53 7 42 c 0
 7 30 2 18 3 5 c 0
 4 -8 24 -7 23 6 c 1
 24 12 25 20 25 26 c 0
 26 32 27 37 27 43 c 0
 28 48 27 54 27 59 c 0
 27 62 27 66 27 69 c 1
 38 70 50 73 61 74 c 0
 70 75 79 76 87 77 c 1
 89 70 91 62 92 55 c 0
 94 47 92 37 93 28 c 0
 93 23 95 20 96 15 c 1
 93 5 109 -2 114 8 c 0
 115 12 117 15 116 19 c 0
 115 23 113 27 113 31 c 0
 112 41 113 50 111 59 c 0
 110 66 109 74 107 81 c 1
 113 86 111 96 102 97 c 1
 101 103 99 108 97 114 c 0
 91 137 92 169 74 180 c 1
 74 180 l 1
64 166 m 2
 64 166 l 2
 64 166 63 165 61 164 c 1
 62 165 62 166 63 166 c 1
 64 166 64 166 64 166 c 2
60 164 m 1
 67 164 69 154 70 148 c 0
 73 135 75 122 78 109 c 0
 79 105 80 100 81 96 c 1
 69 94 57 94 45 92 c 0
 40 92 35 91 30 90 c 1
 31 94 31 97 32 101 c 0
 35 111 36 121 40 130 c 0
 45 140 47 151 54 158 c 0
 56 160 58 162 60 164 c 1
96 14 m 1
 96 13 l 0
 96 13 96 13 96 14 c 1
EndSplineSet
Validated: 37
EndChar

StartChar: Eacute
Encoding: 30 201 30
Width: 91
VWidth: 249
Flags: HW
LayerCount: 2
Fore
SplineSet
61 241 m 0
 60 240 58 238 57 237 c 0
 52 231 47 226 44 219 c 0
 39 208 57 200 62 211 c 1
 66 216 70 222 75 227 c 0
 77 229 78 231 79 234 c 0
 82 241 75 247 69 247 c 0
 66 247 63 245 61 241 c 0
58 93 m 1
 52 91 43 91 36 91 c 0
 32 91 29 91 25 91 c 1
 26 108 26 125 26 142 c 0
 26 151 24 162 25 171 c 0
 25 173 25 175 26 177 c 1
 43 178 56 171 72 171 c 1
 83 167 90 183 81 189 c 1
 81 189 l 2
 80 189 80 190 79 190 c 0
 67 193 55 193 43 195 c 0
 39 196 35 196 31 196 c 0
 18 196 14 194 8 185 c 0
 6 180 5 174 5 169 c 0
 4 159 6 150 6 140 c 0
 6 123 6 107 5 90 c 0
 5 88 5 86 5 84 c 0
 4 82 4 78 5 76 c 0
 5 71 4 64 4 59 c 0
 4 48 2 37 3 25 c 0
 3 20 4 16 4 11 c 0
 4 4 7 -1 12 -6 c 0
 16 -9 22 -10 27 -11 c 0
 32 -12 38 -12 43 -12 c 0
 56 -12 71 -11 79 -9 c 1
 92 -10 93 10 80 11 c 0
 77 10 68 9 62 8 c 0
 57 7 52 8 47 7 c 0
 43 7 38 6 34 7 c 0
 31 8 28 8 25 8 c 0
 25 7 23 11 24 12 c 0
 24 17 23 22 23 27 c 0
 23 38 25 50 25 61 c 0
 25 64 25 67 25 70 c 1
 36 70 47 72 57 73 c 1
 70 72 71 92 58 93 c 1
26 178 m 0
 26 177 l 1
 26 178 l 0
 26 178 l 1
 26 178 l 2
 26 178 l 0
24 177 m 1
 19 175 23 177 23 177 c 1
 24 177 l 1
EndSplineSet
Validated: 37
EndChar

StartChar: Iacute
Encoding: 31 205 31
Width: 77
VWidth: 249
Flags: HW
LayerCount: 2
Fore
SplineSet
52 243 m 1
 45 237 39 229 33 221 c 1
 33 221 l 1
 26 210 43 200 50 211 c 1
 56 216 60 221 64 227 c 0
 66 229 68 232 69 234 c 0
 73 242 66 248 59 248 c 0
 56 248 54 246 52 243 c 1
44 196 m 1
 40 200 33 200 29 196 c 1
 24 196 21 196 16 196 c 1
 4 200 -2 180 10 176 c 0
 16 175 21 175 27 175 c 1
 28 161 27 146 27 131 c 0
 26 121 28 110 27 100 c 0
 27 94 26 89 26 83 c 0
 26 78 27 73 27 68 c 0
 28 50 33 37 33 18 c 1
 28 18 24 18 19 18 c 1
 7 21 2 1 14 -2 c 0
 21 -3 27 -2 34 -2 c 0
 44 -2 54 -2 63 -1 c 1
 75 -3 79 17 67 19 c 0
 62 19 58 18 53 18 c 1
 53 38 47 51 47 70 c 0
 47 75 47 80 47 85 c 0
 47 90 47 96 47 101 c 0
 47 118 47 133 48 149 c 0
 48 158 49 167 48 176 c 1
 52 176 55 177 59 177 c 0
 70 175 74 190 67 195 c 0
 66 196 65 196 63 196 c 0
 60 196 56 196 53 196 c 0
 50 196 47 196 44 196 c 1
EndSplineSet
Validated: 41
EndChar

StartChar: Oacute
Encoding: 32 211 32
Width: 88
VWidth: 249
Flags: HW
LayerCount: 2
Fore
SplineSet
44 245 m 0
 40 241 35 236 32 231 c 1
 32 231 l 1
 26 220 44 210 50 221 c 1
 55 225 58 230 62 235 c 0
 66 243 59 250 52 250 c 0
 49 250 46 249 44 245 c 0
62 190 m 0
 48 198 29 199 18 188 c 0
 10 180 9 168 6 156 c 0
 5 151 5 145 4 140 c 0
 3 135 3 129 3 124 c 0
 3 113 5 103 5 92 c 0
 6 87 6 82 6 77 c 0
 6 72 6 68 6 63 c 0
 7 51 9 40 14 31 c 0
 20 21 31 15 43 12 c 0
 52 10 60 11 68 16 c 0
 81 25 87 41 85 64 c 0
 84 75 84 84 83 94 c 0
 83 99 83 104 83 109 c 0
 83 114 82 120 82 125 c 0
 82 130 81 136 81 141 c 0
 81 158 76 176 66 185 c 0
 65 187 64 189 62 190 c 0
37 177 m 1
 37 177 37 177 36 177 c 1
 37 177 37 176 37 176 c 1
 38 176 40 176 41 176 c 0
 43 174 46 174 49 173 c 0
 52 173 54 169 55 167 c 0
 57 163 58 158 59 154 c 0
 61 145 62 135 62 124 c 0
 62 113 62 103 63 92 c 0
 64 78 65 63 65 48 c 0
 64 40 60 33 54 30 c 0
 51 29 55 31 57 31 c 1
 57 31 48 28 51 31 c 1
 47 32 43 34 39 35 c 0
 32 37 30 44 28 51 c 0
 24 63 27 79 25 93 c 0
 24 108 22 125 24 140 c 0
 25 150 26 159 29 167 c 0
 30 170 32 174 35 176 c 1
 36 176 37 177 37 177 c 1
35 177 m 1
 35 176 l 1
 35 177 l 1
EndSplineSet
Validated: 37
EndChar

StartChar: Uacute
Encoding: 33 218 33
Width: 99
VWidth: 249
Flags: HW
LayerCount: 2
Fore
SplineSet
68 243 m 1
 61 236 54 228 50 219 c 1
 50 219 l 1
 45 208 63 199 68 210 c 1
 73 216 77 222 82 228 c 0
 84 230 86 232 87 235 c 0
 90 242 83 248 77 248 c 0
 74 248 70 247 68 243 c 1
6 198 m 1
 3 187 4 175 3 163 c 0
 3 158 3 153 3 148 c 0
 3 143 3 139 3 134 c 0
 4 123 3 112 4 102 c 0
 4 92 4 82 5 72 c 0
 6 66 7 60 8 55 c 0
 10 50 13 46 15 41 c 0
 20 30 30 21 42 17 c 0
 51 15 61 18 69 23 c 0
 80 31 84 43 89 57 c 0
 91 67 92 78 92 89 c 0
 92 94 92 98 92 103 c 0
 91 112 92 122 93 131 c 0
 94 142 95 153 95 165 c 0
 95 170 96 174 96 179 c 0
 95 184 95 188 95 193 c 0
 95 196 95 198 94 201 c 0
 91 213 72 208 75 196 c 0
 75 194 75 193 75 191 c 0
 75 187 76 182 76 178 c 0
 76 162 74 147 73 131 c 0
 72 122 72 112 72 102 c 0
 72 88 73 73 69 61 c 0
 66 51 62 42 54 37 c 0
 50 35 54 38 56 38 c 0
 57 38 55 37 55 37 c 0
 50 34 45 37 41 40 c 0
 35 45 31 53 28 61 c 0
 27 66 26 69 25 74 c 0
 24 84 25 94 24 104 c 0
 24 114 24 125 23 135 c 0
 23 150 23 165 25 179 c 0
 25 186 26 192 26 199 c 0
 25 212 5 211 6 198 c 1
EndSplineSet
Validated: 37
EndChar

StartChar: Udieresis
Encoding: 34 220 34
Width: 99
VWidth: 249
Flags: HW
LayerCount: 2
Fore
SplineSet
86 245 m 1
 81 249 74 249 70 243 c 1
 64 237 63 230 65 222 c 1
 70 211 82 209 91 217 c 0
 96 222 97 228 95 235 c 0
 93 240 90 244 86 245 c 1
36 235 m 1
 34 242 27 248 19 246 c 0
 16 245 14 243 11 242 c 0
 5 237 3 232 3 225 c 0
 3 219 6 213 11 209 c 0
 16 205 22 205 28 206 c 0
 38 210 41 214 42 224 c 0
 41 229 40 234 36 235 c 1
87 231 m 1
 87 230 88 230 88 229 c 1
 88 230 87 230 87 231 c 1
84 228 m 1
 84 227 l 1
 84 228 l 1
85 111 m 0
 85 122 85 132 86 142 c 0
 86 147 87 153 87 158 c 0
 87 163 86 166 87 171 c 0
 87 182 90 198 78 198 c 0
 72 198 67 193 68 186 c 0
 68 185 l 0
 68 180 67 176 67 171 c 0
 67 166 67 161 67 156 c 0
 67 151 66 147 66 142 c 0
 65 126 64 108 65 92 c 0
 66 74 64 61 57 50 c 0
 54 45 52 40 47 37 c 0
 45 36 l 1
 47 36 48 37 49 37 c 1
 48 37 48 36 47 36 c 0
 41 35 33 39 31 43 c 0
 25 57 27 78 27 98 c 0
 27 115 27 132 26 148 c 0
 26 154 27 159 27 165 c 0
 28 172 28 179 28 186 c 1
 28 186 l 1
 28 199 8 199 8 186 c 1
 5 174 6 161 6 147 c 0
 6 142 6 136 6 131 c 0
 6 119 5 108 6 97 c 0
 6 91 6 86 6 80 c 0
 6 75 7 71 7 66 c 0
 7 55 9 45 13 36 c 0
 18 26 29 19 42 17 c 0
 51 16 59 21 66 27 c 0
 70 31 73 37 76 42 c 0
 84 55 88 74 86 95 c 0
 86 100 85 106 85 111 c 0
EndSplineSet
Validated: 37
EndChar

StartChar: exclamdown
Encoding: 35 161 35
Width: 56
VWidth: 249
Flags: HW
LayerCount: 2
Fore
SplineSet
23 250 m 0
 13 249 8 242 4 234 c 0
 3 231 3 229 3 226 c 0
 3 213 10 207 19 203 c 1
 27 201 36 202 42 208 c 0
 53 219 46 239 38 245 c 0
 34 248 29 250 23 250 c 0
25 228 m 1
 25 228 l 0
 25 228 l 0
 25 228 l 0
 25 228 l 1
19 181 m 1
 18 175 17 168 17 162 c 0
 15 132 12 104 9 75 c 0
 8 64 7 53 7 42 c 0
 6 36 6 31 8 26 c 0
 14 14 33 5 47 17 c 0
 57 26 53 39 51 51 c 0
 50 55 49 60 48 64 c 0
 47 68 47 73 47 77 c 0
 47 82 46 86 46 91 c 0
 46 96 44 102 44 107 c 0
 43 117 43 127 43 138 c 0
 43 144 43 149 43 155 c 0
 43 160 42 165 42 170 c 0
 42 173 42 180 40 182 c 0
 39 182 39 182 38 182 c 1
 38 186 37 187 35 189 c 0
 29 193 19 190 19 181 c 1
33 30 m 0
 32 30 l 0
 32 31 33 31 34 31 c 1
 33 30 l 0
EndSplineSet
Validated: 37
EndChar

StartChar: exclam
Encoding: 36 33 36
Width: 65
VWidth: 249
Flags: HW
LayerCount: 2
Fore
SplineSet
3 224 m 1
 3 185 14 146 14 107 c 1
 16 94 20 82 17 69 c 1
 17 57 31 47 41 55 c 0
 53 65 52 82 53 96 c 1
 57 121 66 146 61 172 c 1
 60 196 61 227 43 245 c 0
 29 259 0 244 3 224 c 1
44 32 m 0
 29 41 8 23 14 7 c 1
 16 -12 48 -16 55 2 c 0
 60 13 54 26 44 32 c 0
EndSplineSet
Validated: 41
EndChar

StartChar: zero
Encoding: 37 48 37
Width: 94
VWidth: 249
Flags: HW
LayerCount: 2
Fore
SplineSet
83 188 m 0
 77 197 68 203 59 208 c 0
 52 212 45 213 37 211 c 0
 11 205 4 175 3 144 c 0
 3 139 3 134 3 129 c 0
 5 107 4 82 9 62 c 0
 10 57 12 53 13 48 c 0
 17 35 26 25 37 19 c 0
 51 12 67 16 77 25 c 0
 86 33 89 46 90 61 c 0
 90 66 91 71 91 76 c 0
 91 86 91 97 91 107 c 0
 90 112 91 116 91 121 c 0
 91 126 91 132 91 137 c 0
 91 142 91 147 91 152 c 0
 91 158 89 164 88 170 c 0
 87 176 86 183 83 188 c 0
56 186 m 1
 52 174 51 161 48 149 c 0
 43 133 40 116 36 100 c 0
 33 90 30 79 28 68 c 1
 25 77 26 88 25 99 c 0
 24 105 24 110 24 116 c 0
 24 121 23 125 23 130 c 0
 23 135 23 140 23 145 c 0
 24 160 25 178 33 186 c 0
 35 188 38 191 41 192 c 1
 40 192 39 191 38 191 c 1
 39 192 40 192 41 192 c 0
 42 190 45 189 48 188 c 0
 53 188 53 188 56 186 c 1
41 192 m 1
 41 192 l 1
 41 192 42 192 41 192 c 1
70 155 m 1
 72 140 69 122 71 106 c 0
 71 96 71 86 71 76 c 0
 70 59 71 42 58 36 c 0
 56 35 l 1
 65 37 59 36 57 35 c 0
 51 34 45 36 42 39 c 1
 44 42 45 48 46 52 c 0
 47 62 50 71 52 80 c 0
 53 86 55 91 56 97 c 0
 60 113 63 131 68 146 c 0
 69 149 69 152 70 155 c 1
EndSplineSet
Validated: 37
EndChar

StartChar: nine
Encoding: 38 57 38
Width: 87
VWidth: 249
Flags: HW
LayerCount: 2
Fore
SplineSet
67 185 m 1
 60 189 54 195 43 193 c 1
 47 193 34 190 38 191 c 0
 46 193 40 192 38 191 c 0
 31 188 25 181 24 172 c 0
 23 168 24 164 26 161 c 0
 28 159 30 159 32 159 c 0
 35 159 40 160 43 160 c 1
 43 160 50 163 47 162 c 0
 41 161 44 161 47 163 c 0
 55 168 62 177 63 190 c 1
 84 187 82 192 80 179 c 0
 79 161 77 145 76 128 c 0
 75 112 75 96 75 80 c 0
 75 70 74 60 75 50 c 0
 75 45 75 39 76 34 c 0
 77 31 77 29 77 26 c 0
 78 14 59 12 58 24 c 1
 58 20 56 31 56 31 c 1
 55 37 55 42 55 48 c 0
 55 53 55 59 55 64 c 0
 56 74 53 85 54 95 c 0
 55 100 55 104 55 109 c 0
 54 122 56 135 57 147 c 0
 58 158 60 169 61 180 c 1
 64 196 56 193 82 193 c 1
 84 189 83 184 82 180 c 0
 79 166 72 157 62 149 c 0
 55 144 47 141 39 141 c 0
 25 139 15 142 9 151 c 0
 2 164 2 180 10 192 c 0
 18 202 31 211 47 212 c 0
 63 212 74 207 82 198 c 0
 90 189 75 176 67 185 c 1
EndSplineSet
Validated: 37
EndChar

StartChar: eight
Encoding: 39 56 39
Width: 86
VWidth: 249
Flags: HW
LayerCount: 2
Fore
SplineSet
45 193 m 1
 46 195 38 192 38 192 c 1
 44 193 43 193 39 191 c 0
 34 187 28 182 31 173 c 0
 33 169 36 165 38 161 c 0
 43 152 49 142 55 134 c 0
 57 129 61 126 64 122 c 0
 71 113 75 101 79 89 c 0
 83 77 85 63 82 49 c 0
 79 36 70 25 59 20 c 0
 52 18 46 16 39 16 c 0
 33 15 27 18 22 21 c 0
 10 29 2 44 3 64 c 0
 3 69 4 74 5 79 c 0
 6 84 7 89 9 94 c 0
 13 106 21 115 28 125 c 0
 36 138 42 154 48 169 c 0
 50 173 52 177 53 182 c 0
 54 185 55 188 53 191 c 0
 52 192 50 193 50 191 c 1
 48 191 47 191 45 191 c 0
 33 193 36 212 48 210 c 1
 66 212 77 198 73 179 c 0
 72 174 70 169 67 164 c 0
 63 154 59 144 55 134 c 0
 50 122 43 112 36 102 c 0
 33 98 31 93 29 89 c 0
 27 85 26 81 25 77 c 0
 24 73 23 68 23 64 c 0
 22 60 23 57 24 53 c 0
 25 43 32 34 43 35 c 0
 45 35 58 39 47 36 c 1
 48 36 48 37 49 37 c 0
 52 37 54 39 56 40 c 1
 59 43 61 47 62 51 c 0
 65 62 62 73 60 83 c 0
 57 93 53 103 47 111 c 0
 44 115 41 119 38 123 c 0
 32 132 26 141 20 151 c 0
 15 160 7 171 11 186 c 0
 15 202 31 214 49 214 c 0
 56 214 63 214 70 213 c 0
 82 210 77 190 65 193 c 1
 58 193 52 193 45 193 c 1
EndSplineSet
Validated: 37
EndChar

StartChar: seven
Encoding: 40 55 40
Width: 85
VWidth: 249
Flags: HW
LayerCount: 2
Fore
SplineSet
83 189 m 0
 83 197 79 205 72 207 c 0
 67 208 61 207 56 207 c 0
 50 207 43 208 37 208 c 0
 30 208 22 208 15 208 c 1
 3 211 -2 192 10 189 c 0
 23 186 37 188 51 188 c 0
 55 188 59 188 63 188 c 1
 58 168 53 147 49 127 c 1
 46 127 43 126 40 126 c 0
 28 129 23 110 35 107 c 0
 38 107 42 106 45 106 c 1
 44 99 43 91 42 84 c 0
 41 78 40 72 40 66 c 0
 39 56 37 45 37 34 c 1
 37 38 37 27 37 27 c 1
 35 15 54 11 56 23 c 0
 57 27 57 31 57 35 c 0
 58 57 63 79 65 100 c 0
 65 103 66 105 66 108 c 0
 67 108 l 0
 79 105 84 124 72 127 c 0
 71 127 71 127 70 127 c 1
 73 142 76 159 80 174 c 0
 81 179 83 184 83 189 c 0
EndSplineSet
Validated: 37
EndChar

StartChar: six
Encoding: 41 54 41
Width: 97
VWidth: 249
Flags: HW
LayerCount: 2
Fore
SplineSet
56 162 m 0
 47 156 41 148 36 137 c 0
 31 123 26 107 24 90 c 0
 23 85 23 81 23 76 c 0
 22 66 26 55 29 48 c 0
 33 41 41 37 49 35 c 0
 52 35 55 35 58 36 c 1
 48 32 61 39 63 40 c 0
 69 44 73 52 74 61 c 0
 74 70 70 78 64 82 c 0
 62 84 59 84 56 84 c 1
 56 83 53 82 53 82 c 1
 61 85 56 83 54 82 c 0
 48 78 44 72 42 64 c 0
 40 57 42 49 39 42 c 1
 37 30 19 34 21 46 c 1
 21 45 l 1
 21 47 21 49 21 51 c 0
 22 63 21 74 27 82 c 0
 30 87 34 92 39 96 c 0
 51 104 67 105 78 96 c 0
 91 85 100 62 90 42 c 0
 87 36 82 31 77 27 c 0
 68 20 56 12 40 17 c 0
 27 21 16 28 10 40 c 0
 2 58 1 85 6 107 c 0
 8 119 12 131 16 142 c 0
 19 148 21 155 25 160 c 0
 33 172 45 181 58 188 c 1
 67 197 81 183 72 174 c 1
 67 170 62 166 56 162 c 0
EndSplineSet
Validated: 37
EndChar

StartChar: five
Encoding: 42 53 42
Width: 98
VWidth: 249
Flags: HW
LayerCount: 2
Fore
SplineSet
63 204 m 0
 56 204 50 204 43 203 c 0
 41 204 25 200 36 203 c 1
 33 203 32 199 31 197 c 0
 29 193 29 188 28 184 c 0
 28 180 28 176 28 172 c 0
 29 170 26 175 25 176 c 1
 26 176 l 1
 25 176 23 175 22 175 c 1
 22 175 29 178 30 179 c 0
 36 182 43 184 50 186 c 0
 65 189 77 179 84 171 c 0
 94 160 95 144 96 125 c 0
 96 120 96 116 96 111 c 0
 97 83 90 58 79 40 c 0
 76 35 71 31 66 27 c 0
 61 23 55 21 49 18 c 0
 43 16 37 16 30 17 c 0
 23 19 18 23 13 28 c 0
 6 36 5 47 3 60 c 0
 1 72 21 75 23 63 c 0
 24 59 23 54 24 50 c 0
 26 44 30 36 37 35 c 0
 40 35 50 37 41 35 c 1
 43 36 45 36 48 37 c 0
 49 37 45 36 44 36 c 0
 40 34 48 37 49 38 c 0
 58 43 63 51 67 61 c 0
 69 66 69 72 71 77 c 0
 73 87 76 98 76 109 c 0
 76 114 76 118 76 123 c 0
 76 128 75 133 75 138 c 0
 75 142 74 146 73 150 c 0
 71 156 65 163 59 165 c 0
 56 166 53 167 50 166 c 0
 49 166 47 165 47 165 c 1
 48 166 50 165 51 166 c 0
 56 168 46 164 45 164 c 0
 38 161 31 157 23 156 c 0
 15 156 10 161 8 169 c 0
 7 175 8 180 8 186 c 0
 9 191 9 196 11 201 c 0
 13 208 17 215 24 219 c 1
 32 222 39 224 47 224 c 0
 54 224 60 224 67 224 c 0
 74 225 80 226 87 226 c 0
 100 225 98 205 85 206 c 1
 78 204 70 204 63 204 c 0
EndSplineSet
Validated: 37
EndChar

StartChar: three
Encoding: 43 51 43
Width: 93
VWidth: 249
Flags: HW
LayerCount: 2
Fore
SplineSet
36 200 m 0
 43 200 49 201 56 201 c 0
 61 202 68 202 73 201 c 0
 82 197 83 189 79 181 c 0
 77 176 73 172 69 168 c 0
 61 160 53 152 46 143 c 0
 42 138 45 141 41 147 c 1
 37 150 40 150 43 150 c 0
 49 151 39 150 48 151 c 0
 63 151 74 141 81 133 c 0
 87 124 89 114 89 100 c 0
 89 95 90 90 90 85 c 0
 91 72 89 63 86 53 c 0
 84 47 80 42 76 37 c 0
 72 32 68 29 63 25 c 0
 52 19 50 18 42 16 c 1
 26 14 15 28 10 39 c 0
 7 46 4 53 3 61 c 0
 0 73 20 78 23 66 c 0
 25 60 25 54 28 48 c 0
 30 44 33 40 36 37 c 0
 38 35 40 35 42 36 c 0
 43 36 45 37 46 37 c 1
 46 37 43 36 42 36 c 0
 40 35 50 39 48 39 c 1
 52 41 55 43 58 46 c 0
 61 49 64 53 66 57 c 0
 68 61 69 66 70 70 c 0
 70 74 70 78 70 82 c 0
 70 87 69 94 69 99 c 0
 69 108 69 116 65 121 c 0
 61 126 53 132 45 131 c 0
 38 130 30 130 26 136 c 0
 23 142 25 148 28 153 c 0
 32 158 36 162 41 167 c 0
 45 171 48 175 52 179 c 0
 55 182 59 185 61 188 c 0
 63 190 62 189 63 187 c 0
 64 184 64 184 66 182 c 1
 62 181 57 182 53 181 c 0
 46 180 40 179 33 179 c 0
 26 179 19 178 12 179 c 0
 0 182 5 201 17 198 c 1
 23 199 30 200 36 200 c 0
EndSplineSet
Validated: 37
EndChar

StartChar: four
Encoding: 44 52 44
Width: 89
VWidth: 249
Flags: HW
LayerCount: 2
Fore
SplineSet
78 157 m 0
 75 157 72 156 70 156 c 1
 70 162 71 169 71 175 c 0
 71 188 51 188 51 175 c 1
 50 168 49 160 49 153 c 1
 40 152 31 150 23 148 c 1
 25 160 27 174 29 186 c 0
 30 193 30 200 30 208 c 0
 30 214 25 217 20 217 c 0
 15 217 10 214 10 208 c 1
 7 194 7 180 5 166 c 0
 5 160 4 155 3 149 c 0
 3 140 6 134 14 130 c 0
 21 128 29 129 36 130 c 0
 41 130 44 131 49 132 c 1
 49 128 50 125 50 121 c 0
 50 116 50 112 50 107 c 0
 50 102 51 99 51 94 c 0
 51 89 51 85 51 80 c 0
 51 75 51 71 51 66 c 0
 51 61 50 57 50 52 c 0
 50 47 50 41 51 36 c 0
 51 32 53 29 53 25 c 0
 54 12 74 13 73 26 c 0
 73 35 71 43 71 53 c 0
 71 62 71 71 71 80 c 0
 71 85 71 91 71 96 c 0
 71 100 70 105 70 109 c 0
 70 113 70 118 70 122 c 0
 70 127 69 132 69 137 c 1
 72 137 74 138 77 138 c 0
 89 137 90 156 78 157 c 0
EndSplineSet
Validated: 41
EndChar

StartChar: one
Encoding: 45 49 45
Width: 83
VWidth: 249
Flags: HW
LayerCount: 2
Fore
SplineSet
58 122 m 0
 58 134 57 146 57 158 c 0
 57 170 58 181 59 192 c 0
 59 197 60 202 57 207 c 1
 54 209 53 212 48 212 c 0
 41 212 37 206 34 201 c 0
 30 196 26 192 21 188 c 0
 16 183 10 179 5 174 c 1
 5 174 l 1
 -3 164 13 152 21 162 c 1
 27 166 32 170 37 175 c 1
 37 169 37 163 37 157 c 0
 39 128 37 97 36 68 c 0
 36 63 37 58 37 53 c 0
 37 48 38 42 38 37 c 0
 38 37 l 1
 31 37 24 37 17 36 c 1
 5 39 0 20 12 17 c 0
 27 15 41 17 55 18 c 0
 57 18 67 18 68 18 c 0
 79 13 86 30 75 35 c 0
 71 38 63 38 58 38 c 1
 57 43 57 49 57 54 c 0
 57 59 56 64 56 69 c 0
 56 81 58 92 58 104 c 0
 58 110 58 116 58 122 c 0
55 198 m 1
 56 198 l 1
 55 198 l 1
EndSplineSet
Validated: 37
EndChar

StartChar: two
Encoding: 46 50 46
Width: 93
VWidth: 249
Flags: HW
LayerCount: 2
Fore
SplineSet
7 193 m 0
 10 207 18 219 28 227 c 0
 40 236 55 239 71 233 c 1
 90 223 90 193 83 169 c 0
 78 151 74 135 67 120 c 0
 61 105 55 90 50 74 c 0
 47 63 43 53 39 44 c 0
 38 43 33 29 33 29 c 1
 32 31 34 28 32 32 c 0
 31 35 31 33 31 34 c 0
 30 35 l 0
 38 36 l 0
 42 37 46 37 50 37 c 0
 54 38 59 39 63 39 c 0
 68 39 72 39 77 39 c 0
 79 39 81 39 82 40 c 0
 95 39 94 19 81 20 c 1
 74 19 67 20 60 19 c 0
 52 19 42 17 34 16 c 0
 29 16 25 16 21 18 c 0
 15 22 12 28 14 35 c 0
 16 40 17 45 19 50 c 0
 21 54 24 59 25 64 c 0
 27 68 29 73 30 78 c 0
 36 94 41 110 47 125 c 0
 49 131 52 136 54 142 c 0
 56 147 57 151 59 156 c 0
 61 161 62 167 63 173 c 0
 66 181 67 190 67 200 c 0
 67 204 66 207 66 211 c 0
 64 216 56 217 49 216 c 0
 45 215 49 216 51 217 c 0
 54 219 40 214 43 214 c 1
 39 211 36 208 33 204 c 0
 27 196 26 184 23 173 c 1
 23 160 3 159 3 172 c 1
 2 179 5 186 7 193 c 0
EndSplineSet
Validated: 37
EndChar

StartChar: udieresis
Encoding: 47 252 47
Width: 79
VWidth: 249
Flags: HW
LayerCount: 2
Fore
SplineSet
35 136 m 0
 31 145 26 148 16 147 c 1
 13 145 11 144 8 142 c 0
 3 138 3 129 4 124 c 0
 5 121 6 120 8 118 c 0
 8 117 9 117 9 116 c 0
 16 106 27 107 34 116 c 0
 38 122 37 129 35 136 c 0
61 146 m 1
 48 150 43 130 49 119 c 1
 55 110 66 111 73 119 c 0
 77 124 77 130 76 136 c 0
 73 144 67 148 61 146 c 1
24 102 m 0
 20 102 16 100 15 96 c 1
 10 90 8 82 7 74 c 0
 6 66 10 59 14 53 c 0
 19 47 25 44 32 41 c 0
 43 38 48 39 58 44 c 1
 72 53 76 76 68 95 c 0
 64 107 46 101 50 89 c 0
 51 86 51 82 52 79 c 0
 53 71 50 62 44 59 c 1
 53 62 45 58 41 59 c 0
 35 60 26 65 28 73 c 0
 29 79 32 84 34 90 c 0
 36 97 30 102 24 102 c 0
EndSplineSet
Validated: 41
EndChar

StartChar: uacute
Encoding: 48 250 48
Width: 74
VWidth: 249
Flags: HW
LayerCount: 2
Fore
SplineSet
69 144 m 0
 76 154 60 164 53 154 c 0
 50 152 48 150 46 147 c 0
 41 142 35 137 31 131 c 1
 24 120 41 110 48 121 c 1
 54 125 59 131 64 136 c 0
 66 138 67 141 69 144 c 0
29 84 m 0
 33 96 14 102 10 90 c 1
 5 79 1 66 4 51 c 0
 7 39 19 31 33 29 c 0
 50 27 63 39 68 52 c 0
 72 63 71 75 69 87 c 0
 66 99 47 95 50 83 c 0
 52 75 51 64 48 57 c 0
 46 54 44 50 40 49 c 1
 41 49 41 49 43 49 c 1
 43 49 37 47 38 48 c 1
 32 46 25 51 24 56 c 0
 21 66 27 76 29 84 c 0
40 49 m 1
 38 49 39 49 40 49 c 1
EndSplineSet
Validated: 37
EndChar

StartChar: oacute
Encoding: 49 243 49
Width: 78
VWidth: 249
Flags: HW
LayerCount: 2
Fore
SplineSet
69 148 m 0
 76 158 59 170 52 160 c 1
 47 156 38 148 32 142 c 0
 24 132 40 120 48 130 c 1
 56 135 65 143 69 148 c 0
74 68 m 0
 69 83 59 98 39 94 c 1
 24 94 17 87 9 78 c 0
 4 72 3 65 3 57 c 0
 3 50 6 44 9 38 c 0
 16 28 29 22 45 23 c 0
 54 24 62 28 68 35 c 0
 75 43 77 55 74 68 c 0
40 74 m 0
 42 74 44 73 46 73 c 1
 47 72 49 71 50 71 c 0
 55 64 58 53 51 46 c 0
 49 45 45 43 47 43 c 0
 48 43 48 44 49 44 c 1
 41 40 30 44 26 48 c 0
 24 50 23 54 23 57 c 0
 23 63 27 69 31 72 c 1
 33 72 36 72 38 74 c 0
 40 74 l 0
34 73 m 0
 33 73 l 1
 34 73 l 0
30 72 m 0
 31 72 l 1
 30 72 l 1
 30 72 l 0
EndSplineSet
Validated: 37
EndChar

StartChar: iacute
Encoding: 50 237 50
Width: 49
VWidth: 249
Flags: HW
LayerCount: 2
Fore
SplineSet
44 145 m 0
 51 155 36 166 29 157 c 0
 26 155 23 153 21 150 c 0
 16 145 11 140 7 134 c 0
 0 123 16 113 23 124 c 1
 29 129 34 134 39 139 c 0
 41 141 43 143 44 145 c 0
23 82 m 0
 22 95 2 94 3 81 c 0
 3 74 3 67 4 60 c 0
 5 52 6 45 7 37 c 1
 5 25 24 22 26 34 c 0
 28 43 26 54 25 64 c 0
 24 70 24 76 23 82 c 0
EndSplineSet
Validated: 41
EndChar

StartChar: eacute
Encoding: 51 233 51
Width: 82
VWidth: 249
Flags: HW
LayerCount: 2
Fore
SplineSet
62 150 m 0
 70 160 54 173 46 163 c 1
 41 160 37 156 33 152 c 0
 25 142 41 130 49 140 c 1
 53 143 58 147 62 150 c 0
48 104 m 0
 30 108 16 95 9 84 c 0
 3 75 2 62 6 50 c 0
 9 44 12 38 17 33 c 0
 25 25 36 22 50 21 c 0
 56 21 62 23 67 25 c 0
 69 26 69 26 71 27 c 0
 78 31 80 35 79 43 c 1
 76 53 63 51 60 43 c 0
 59 42 56 41 55 41 c 0
 54 41 53 40 54 40 c 1
 50 39 46 41 42 42 c 0
 38 43 35 43 32 46 c 0
 30 48 28 50 27 53 c 1
 33 54 39 56 45 57 c 0
 56 59 62 63 67 72 c 0
 70 79 68 86 65 93 c 0
 61 99 55 102 48 104 c 0
39 86 m 1
 42 85 45 85 47 83 c 0
 49 81 50 79 47 78 c 1
 49 79 50 79 46 78 c 0
 39 76 32 75 26 73 c 0
 26 73 l 1
 29 78 32 82 37 85 c 0
 41 87 37 84 35 84 c 0
 32 84 39 86 40 86 c 0
 39 86 l 1
47 78 m 1
 46 78 l 1
 47 78 l 1
EndSplineSet
Validated: 37
EndChar

StartChar: aacute
Encoding: 52 225 52
Width: 97
VWidth: 249
Flags: HW
LayerCount: 2
Fore
SplineSet
57 159 m 0
 56 158 l 0
 51 154 46 151 42 146 c 0
 34 136 50 124 58 134 c 1
 64 139 71 143 75 150 c 0
 80 161 62 170 57 159 c 0
53 103 m 0
 33 108 20 95 11 84 c 0
 5 75 0 62 5 49 c 0
 10 37 23 30 38 29 c 0
 48 28 57 34 63 41 c 1
 65 36 68 32 72 28 c 0
 76 25 80 24 85 23 c 0
 97 22 98 40 87 42 c 1
 81 47 81 53 79 62 c 0
 78 69 76 76 74 82 c 1
 75 84 75 87 73 90 c 0
 68 97 61 101 53 103 c 0
37 83 m 1
 38 83 42 84 44 84 c 0
 47 83 50 83 53 81 c 1
 50 68 53 54 41 49 c 1
 35 49 27 52 24 56 c 0
 23 59 24 62 24 65 c 0
 25 69 27 71 29 74 c 0
 32 78 35 82 39 84 c 0
 43 85 39 83 37 83 c 1
45 50 m 1
 45 50 43 49 41 49 c 1
 44 50 45 50 45 50 c 1
88 41 m 1
 89 41 89 40 88 41 c 1
EndSplineSet
Validated: 37
EndChar

StartChar: g
Encoding: 53 103 53
Width: 86
VWidth: 249
Flags: HW
LayerCount: 2
Fore
SplineSet
58 87 m 1
 53 90 44 98 36 93 c 1
 45 97 37 92 35 91 c 0
 29 87 22 79 23 69 c 0
 24 66 27 64 29 62 c 0
 32 60 35 61 38 62 c 0
 40 63 47 63 39 62 c 0
 38 62 40 63 41 63 c 0
 50 68 54 76 56 87 c 0
 57 88 56 100 57 96 c 1
 80 99 75 101 76 89 c 0
 77 78 78 67 80 57 c 0
 82 38 84 17 82 -3 c 0
 81 -16 81 -29 77 -40 c 0
 72 -50 68 -51 57 -54 c 1
 50 -53 45 -50 39 -46 c 0
 29 -40 23 -30 18 -18 c 0
 13 -6 32 1 37 -11 c 0
 40 -19 45 -27 52 -31 c 0
 54 -32 56 -34 59 -35 c 0
 59 -35 l 1
 59 -34 l 0
 57 -35 56 -35 54 -36 c 0
 53 -36 55 -36 56 -36 c 0
 57 -36 56 -37 57 -36 c 0
 60 -32 60 -25 61 -20 c 0
 62 -14 62 -8 62 -2 c 0
 64 17 62 36 60 53 c 0
 59 60 57 66 57 73 c 0
 57 78 56 81 56 86 c 0
 56 90 54 125 75 101 c 1
 76 96 77 91 76 86 c 0
 73 72 70 61 61 53 c 0
 54 47 45 42 35 42 c 0
 27 42 20 43 14 48 c 0
 9 53 5 59 4 66 c 0
 3 72 2 78 5 84 c 0
 7 90 11 95 15 100 c 0
 24 108 38 118 55 112 c 0
 62 109 68 106 73 100 c 0
 81 91 66 78 58 87 c 1
EndSplineSet
Validated: 37
EndChar

StartChar: b
Encoding: 54 98 54
Width: 88
VWidth: 249
Flags: HW
LayerCount: 2
Fore
SplineSet
9 101 m 0
 9 115 7 129 8 143 c 0
 8 157 7 171 5 184 c 0
 4 191 3 198 3 205 c 1
 0 217 20 222 23 210 c 1
 25 202 25 194 26 186 c 0
 28 172 29 158 29 144 c 0
 28 124 30 104 28 85 c 0
 28 80 27 76 27 71 c 0
 26 60 26 49 27 39 c 0
 27 38 27 36 27 37 c 0
 26 38 27 40 26 40 c 0
 21 40 14 39 9 38 c 1
 11 46 12 54 14 61 c 0
 18 80 29 94 43 103 c 0
 51 108 59 109 67 106 c 0
 77 102 81 91 83 79 c 0
 85 74 85 68 85 63 c 0
 85 49 78 37 70 30 c 0
 65 25 58 22 51 19 c 1
 45 18 39 19 33 20 c 0
 27 22 23 27 19 32 c 0
 16 36 15 40 15 45 c 0
 15 58 35 59 35 46 c 1
 34 45 36 44 36 43 c 0
 37 41 39 38 41 38 c 0
 44 38 46 38 49 39 c 1
 39 35 53 40 54 42 c 0
 59 46 65 53 65 62 c 0
 65 66 65 70 64 74 c 0
 63 78 62 87 58 88 c 0
 55 88 54 86 60 89 c 1
 60 89 54 88 57 88 c 1
 53 87 50 84 47 82 c 0
 41 75 35 68 33 58 c 0
 32 54 30 49 30 45 c 0
 29 41 29 37 28 33 c 1
 22 31 17 29 11 29 c 0
 9 29 7 39 7 41 c 0
 6 51 6 60 7 70 c 0
 7 75 8 80 8 85 c 0
 9 90 9 96 9 101 c 0
EndSplineSet
Validated: 37
EndChar

StartChar: h
Encoding: 55 104 55
Width: 79
VWidth: 249
Flags: HW
LayerCount: 2
Fore
SplineSet
23 219 m 0
 26 198 27 174 29 152 c 0
 30 138 29 124 30 110 c 0
 30 97 31 85 31 72 c 0
 31 67 31 61 31 56 c 0
 31 51 31 46 31 41 c 0
 31 29 32 33 13 35 c 0
 13 35 l 1
 13 44 13 52 13 61 c 0
 13 74 15 85 19 95 c 0
 21 100 22 105 25 110 c 0
 29 118 36 124 46 124 c 0
 53 124 59 120 64 115 c 0
 74 104 74 87 75 67 c 0
 75 56 74 45 76 35 c 0
 77 33 76 31 76 29 c 0
 77 17 58 15 57 27 c 1
 54 38 54 51 55 65 c 0
 55 70 54 76 54 81 c 0
 54 89 53 97 49 102 c 0
 47 103 45 104 43 104 c 1
 42 102 43 104 48 107 c 0
 47 107 l 0
 45 107 45 104 44 103 c 0
 41 99 40 94 38 90 c 0
 36 86 35 81 35 76 c 0
 34 71 33 66 33 61 c 0
 33 56 33 51 33 46 c 0
 33 41 33 36 32 31 c 1
 11 30 11 25 11 40 c 0
 11 45 11 50 11 55 c 0
 11 60 11 65 11 70 c 0
 10 96 9 123 8 149 c 0
 7 156 6 164 6 171 c 0
 6 179 6 186 5 194 c 0
 4 202 2 208 3 216 c 1
 1 229 21 232 23 219 c 0
EndSplineSet
Validated: 37
EndChar

StartChar: f
Encoding: 56 102 56
Width: 79
VWidth: 249
Flags: HW
LayerCount: 2
Fore
SplineSet
15 30 m 1
 14 24 14 17 14 10 c 0
 14 5 14 -1 14 -6 c 0
 14 -21 14 -35 17 -47 c 0
 20 -59 39 -54 36 -42 c 1
 36 -35 35 -30 35 -23 c 0
 35 -17 34 -10 34 -4 c 0
 33 9 35 21 36 32 c 1
 49 34 52 36 61 39 c 1
 70 46 60 61 50 56 c 0
 46 55 42 54 37 53 c 1
 38 61 38 69 39 77 c 0
 40 82 41 87 42 92 c 0
 43 98 46 104 49 108 c 1
 53 108 56 100 57 97 c 0
 58 92 57 85 56 83 c 0
 55 70 75 68 76 81 c 0
 77 86 78 94 76 102 c 0
 73 114 65 128 50 128 c 0
 47 127 44 126 41 125 c 0
 35 123 31 117 28 112 c 0
 20 95 18 74 17 50 c 0
 16 50 14 49 13 49 c 0
 0 50 -1 31 12 30 c 0
 13 30 14 30 15 30 c 1
53 109 m 0
 52 108 50 108 49 108 c 1
 50 109 51 110 52 110 c 0
 53 109 l 0
EndSplineSet
Validated: 37
EndChar

StartChar: e
Encoding: 57 101 57
Width: 89
VWidth: 249
Flags: HW
LayerCount: 2
Fore
SplineSet
58 77 m 0
 57 81 55 92 50 90 c 1
 47 91 43 90 40 89 c 0
 38 88 32 86 40 88 c 1
 31 84 22 79 24 65 c 0
 25 57 28 47 34 43 c 0
 37 40 41 39 45 38 c 0
 48 38 52 37 55 39 c 0
 56 39 63 41 63 41 c 1
 59 40 53 37 67 42 c 1
 58 38 68 43 68 43 c 0
 68 42 l 1
 72 54 90 48 86 36 c 1
 83 28 76 24 68 22 c 1
 80 27 56 18 54 19 c 0
 39 18 27 22 19 29 c 0
 8 40 -2 63 6 83 c 0
 9 90 13 96 20 100 c 0
 30 106 44 113 59 108 c 0
 70 103 77 92 77 77 c 0
 76 71 75 64 70 60 c 0
 67 59 65 58 62 57 c 0
 57 55 52 56 47 55 c 0
 40 55 34 55 27 56 c 0
 15 59 20 78 32 75 c 1
 38 75 45 74 51 75 c 0
 54 75 58 75 61 76 c 1
 60 76 58 75 57 75 c 1
 57 73 58 76 58 77 c 0
EndSplineSet
Validated: 37
EndChar

StartChar: d
Encoding: 58 100 58
Width: 85
VWidth: 249
Flags: HW
LayerCount: 2
Fore
SplineSet
81 69 m 0
 81 58 82 49 82 38 c 0
 82 36 82 32 82 30 c 0
 82 29 82 27 81 28 c 0
 81 29 81 29 81 30 c 0
 58 27 63 23 62 38 c 0
 61 52 61 69 54 78 c 0
 52 79 51 81 48 81 c 0
 44 82 41 81 37 81 c 0
 35 80 29 79 38 81 c 1
 33 78 l 0
 28 74 23 66 23 57 c 0
 24 50 27 42 32 39 c 0
 35 38 36 38 39 38 c 0
 44 39 50 38 55 39 c 0
 56 39 60 41 60 41 c 1
 70 49 83 33 73 25 c 1
 66 22 59 19 52 19 c 0
 39 18 27 18 18 24 c 0
 13 28 9 33 7 39 c 0
 3 50 1 61 6 73 c 0
 13 91 30 106 56 100 c 0
 62 98 67 94 71 89 c 0
 74 84 78 79 79 73 c 0
 81 63 82 51 82 40 c 0
 82 24 86 29 63 23 c 1
 62 27 61 32 62 36 c 0
 62 47 61 58 61 69 c 0
 61 81 62 92 61 103 c 0
 61 109 60 115 60 121 c 0
 59 127 58 134 58 140 c 0
 57 147 58 153 57 160 c 0
 57 166 55 174 55 180 c 1
 52 192 71 196 74 184 c 1
 77 171 78 157 79 143 c 0
 80 131 82 118 82 105 c 0
 82 99 82 92 82 86 c 0
 82 80 81 75 81 69 c 0
EndSplineSet
Validated: 37
EndChar

StartChar: a
Encoding: 59 97 59
Width: 86
VWidth: 249
Flags: HW
LayerCount: 2
Fore
SplineSet
42 84 m 1
 45 87 35 83 35 83 c 1
 37 84 41 86 38 84 c 0
 29 78 21 64 25 49 c 0
 26 45 33 40 39 43 c 0
 40 44 l 1
 39 44 37 42 36 42 c 1
 36 42 37 42 39 44 c 0
 48 51 52 62 54 75 c 0
 55 80 55 85 56 90 c 0
 59 99 59 96 76 93 c 0
 77 93 77 87 77 86 c 0
 77 81 78 76 78 71 c 0
 79 60 78 50 80 40 c 0
 80 38 80 37 81 35 c 0
 82 33 l 1
 81 35 l 0
 80 36 79 35 78 36 c 1
 89 31 82 14 71 19 c 0
 70 20 68 20 67 21 c 0
 63 25 61 30 61 36 c 0
 58 50 57 67 58 83 c 1
 57 95 72 80 76 90 c 1
 76 85 76 79 75 74 c 0
 73 59 68 45 59 36 c 0
 53 30 46 24 37 23 c 0
 15 22 0 38 3 62 c 0
 7 83 22 108 48 104 c 0
 56 103 63 99 69 94 c 0
 79 86 66 71 56 79 c 1
 51 81 47 84 42 84 c 1
EndSplineSet
Validated: 37
EndChar

StartChar: c
Encoding: 60 99 60
Width: 69
VWidth: 249
Flags: HW
LayerCount: 2
Fore
SplineSet
44 85 m 1
 39 86 35 87 30 86 c 0
 28 85 l 1
 29 85 30 86 31 86 c 1
 26 84 25 77 24 71 c 0
 23 66 24 62 25 57 c 0
 26 52 28 48 30 43 c 0
 31 40 34 39 36 38 c 0
 39 38 41 38 44 38 c 0
 47 39 52 38 55 40 c 1
 53 39 52 39 50 38 c 1
 59 47 72 33 63 24 c 1
 60 23 58 21 55 20 c 0
 44 18 33 17 24 22 c 0
 14 28 7 40 5 53 c 0
 2 68 3 81 10 92 c 0
 16 100 22 105 33 106 c 0
 41 106 49 105 56 101 c 0
 66 94 54 78 44 85 c 1
EndSplineSet
Validated: 37
EndChar

StartChar: k
Encoding: 61 107 61
Width: 89
VWidth: 249
Flags: HW
LayerCount: 2
Fore
SplineSet
29 67 m 1
 36 68 43 70 51 70 c 0
 54 70 58 71 61 70 c 0
 62 70 62 68 63 67 c 0
 65 60 66 51 66 42 c 0
 66 42 67 35 67 33 c 0
 65 24 79 17 84 27 c 0
 88 36 86 50 85 60 c 0
 83 71 79 83 70 88 c 0
 65 90 60 91 54 90 c 1
 58 94 62 97 66 101 c 0
 72 107 91 121 77 129 c 0
 73 132 67 132 64 127 c 1
 58 122 53 117 48 112 c 0
 41 105 34 98 26 92 c 1
 25 100 25 108 23 116 c 0
 20 128 0 124 3 112 c 1
 3 105 4 97 5 90 c 0
 6 84 12 25 12 25 c 1
 12 17 25 12 30 20 c 1
 32 25 32 28 31 33 c 0
 30 44 30 56 29 67 c 1
EndSplineSet
Validated: 41
EndChar

StartChar: n
Encoding: 62 110 62
Width: 69
VWidth: 249
Flags: HW
LayerCount: 2
Fore
SplineSet
45 31 m 0
 45 42 47 52 46 63 c 0
 46 73 44 83 40 90 c 0
 39 91 39 94 37 94 c 1
 36 92 36 93 41 95 c 0
 45 97 37 93 37 93 c 1
 34 90 30 88 28 84 c 0
 23 75 23 62 24 49 c 0
 25 42 26 35 25 28 c 1
 27 15 8 12 6 25 c 0
 5 32 5 39 4 46 c 0
 2 63 3 78 9 90 c 0
 14 101 24 110 37 113 c 0
 39 113 42 112 44 112 c 0
 55 108 61 95 64 83 c 0
 67 68 66 49 66 32 c 0
 66 30 65 27 65 25 c 0
 65 13 46 13 46 25 c 0
 46 27 45 29 45 31 c 0
EndSplineSet
Validated: 37
EndChar

StartChar: m
Encoding: 63 109 63
Width: 100
VWidth: 249
Flags: HW
LayerCount: 2
Fore
SplineSet
3 28 m 0
 2 47 4 67 6 85 c 0
 7 90 7 95 8 100 c 0
 10 106 13 112 18 116 c 0
 26 122 36 121 44 116 c 0
 53 109 56 96 55 81 c 0
 55 77 55 73 55 69 c 0
 55 59 54 61 35 64 c 0
 35 64 35 67 35 68 c 0
 34 88 41 102 51 112 c 0
 57 118 65 122 73 122 c 0
 80 121 86 117 90 111 c 0
 97 103 97 92 98 79 c 0
 98 67 97 55 96 44 c 0
 95 39 95 35 95 30 c 0
 95 27 95 25 94 23 c 0
 91 11 73 15 76 27 c 1
 76 24 76 27 76 28 c 0
 75 45 78 60 78 77 c 0
 78 81 78 86 77 90 c 0
 76 94 74 103 69 102 c 1
 69 102 72 104 73 104 c 1
 72 103 l 0
 66 101 62 96 59 91 c 0
 57 88 56 84 56 80 c 0
 56 77 54 73 54 70 c 0
 54 63 50 68 36 65 c 0
 35 65 37 64 36 64 c 0
 35 66 l 0
 34 75 36 85 34 94 c 0
 34 96 34 98 32 100 c 0
 29 101 25 99 34 102 c 1
 33 102 l 0
 26 101 27 92 26 85 c 0
 25 74 24 62 24 50 c 0
 24 43 24 36 23 29 c 1
 24 16 4 15 3 28 c 0
EndSplineSet
Validated: 37
EndChar

StartChar: l
Encoding: 64 108 64
Width: 45
VWidth: 249
Flags: HW
LayerCount: 2
Fore
SplineSet
23 186 m 0
 29 151 28 111 28 72 c 0
 28 65 28 57 28 50 c 0
 28 45 28 39 28 34 c 0
 29 32 28 34 30 35 c 0
 32 35 33 35 35 35 c 0
 47 33 44 14 32 16 c 1
 18 15 10 21 8 32 c 0
 8 38 8 43 7 49 c 0
 7 64 7 80 7 95 c 0
 7 110 7 125 6 140 c 0
 5 147 5 155 4 162 c 0
 4 169 2 176 3 183 c 1
 1 196 21 199 23 186 c 0
EndSplineSet
Validated: 33
EndChar

StartChar: i
Encoding: 65 105 65
Width: 39
VWidth: 249
Flags: HW
LayerCount: 2
Fore
SplineSet
24 154 m 1
 19 157 14 156 11 151 c 0
 6 145 3 139 3 131 c 0
 5 121 11 117 21 118 c 0
 24 119 26 120 29 122 c 0
 35 126 37 135 36 141 c 0
 34 149 30 153 24 154 c 1
4 86 m 1
 3 79 4 72 4 65 c 0
 5 51 3 37 6 24 c 0
 7 12 27 14 26 26 c 0
 26 27 26 28 26 29 c 0
 26 42 25 54 24 67 c 0
 24 74 25 80 24 87 c 1
 24 93 19 96 14 96 c 0
 9 96 4 92 4 86 c 1
EndSplineSet
Validated: 41
EndChar

StartChar: j
Encoding: 66 106 66
Width: 95
VWidth: 249
Flags: HW
LayerCount: 2
Fore
SplineSet
81 176 m 1
 69 178 63 171 62 161 c 1
 60 159 58 157 56 154 c 0
 52 144 55 137 64 132 c 1
 74 129 82 132 89 140 c 0
 93 146 93 153 92 160 c 0
 91 168 88 173 81 176 c 1
74 146 m 1
 74 145 l 1
 75 145 75 146 75 146 c 0
 76 146 l 1
 76 146 74 145 70 144 c 0
 69 144 72 145 74 146 c 1
60 114 m 1
 58 102 59 89 58 76 c 0
 58 70 58 65 58 59 c 0
 58 48 56 38 57 27 c 0
 58 12 55 -2 53 -16 c 0
 51 -22 51 -32 44 -33 c 0
 43 -32 42 -32 44 -32 c 1
 35 -33 28 -29 25 -23 c 0
 24 -21 23 -18 23 -16 c 0
 20 -4 0 -9 3 -21 c 0
 6 -38 18 -51 37 -52 c 0
 45 -52 52 -52 58 -47 c 0
 63 -43 67 -38 69 -32 c 0
 72 -23 73 -12 75 -2 c 0
 77 12 76 28 77 44 c 0
 77 49 78 55 78 60 c 0
 78 72 78 84 79 95 c 0
 79 102 81 108 80 115 c 0
 80 121 75 124 70 124 c 0
 65 124 60 120 60 114 c 1
47 -32 m 1
 46 -32 46 -32 45 -32 c 1
 46 -32 47 -32 47 -32 c 1
EndSplineSet
Validated: 37
EndChar

StartChar: t
Encoding: 67 116 67
Width: 89
VWidth: 249
Flags: HW
LayerCount: 2
Fore
SplineSet
25 88 m 1
 25 73 24 58 25 43 c 0
 25 36 27 30 31 25 c 0
 42 12 70 13 83 24 c 1
 91 33 77 47 69 38 c 0
 67 38 59 35 65 36 c 1
 60 34 52 33 47 36 c 0
 45 38 45 42 45 45 c 0
 45 60 45 75 45 90 c 1
 55 92 64 94 73 98 c 1
 80 106 70 118 62 114 c 1
 56 113 51 111 46 110 c 1
 46 118 46 127 48 134 c 0
 50 140 50 146 52 152 c 0
 56 163 38 170 34 158 c 1
 30 151 29 143 27 136 c 0
 25 127 25 118 25 108 c 1
 22 108 18 108 15 107 c 1
 3 110 -2 91 10 88 c 0
 15 87 20 88 25 88 c 1
EndSplineSet
Validated: 41
EndChar

StartChar: x
Encoding: 68 120 68
Width: 80
VWidth: 249
Flags: HW
LayerCount: 2
Fore
SplineSet
75 78 m 1
 82 89 64 99 58 88 c 1
 52 84 48 79 43 74 c 0
 40 72 37 70 35 67 c 1
 31 73 26 78 21 83 c 1
 14 93 -2 81 5 71 c 0
 10 64 16 58 21 51 c 1
 16 46 10 40 8 32 c 0
 5 20 24 16 27 28 c 1
 28 27 30 32 31 32 c 0
 32 33 33 34 34 35 c 1
 37 32 40 29 43 26 c 0
 47 21 52 17 58 15 c 1
 69 14 73 21 72 30 c 0
 71 36 65 38 60 37 c 0
 59 38 59 38 59 38 c 0
 55 42 52 46 48 50 c 1
 57 59 67 68 75 78 c 1
64 33 m 1
 65 33 l 0
 66 32 65 32 64 33 c 1
EndSplineSet
Validated: 41
EndChar

StartChar: u
Encoding: 69 117 69
Width: 74
VWidth: 249
Flags: HW
LayerCount: 2
Fore
SplineSet
28 90 m 0
 27 77 24 64 24 49 c 0
 24 45 25 42 27 39 c 0
 29 35 32 35 36 34 c 0
 38 34 40 35 40 35 c 1
 55 41 51 68 48 85 c 0
 47 87 47 89 47 91 c 0
 44 103 63 108 66 96 c 1
 72 79 74 52 66 35 c 0
 62 29 58 23 52 20 c 0
 44 17 37 14 28 16 c 0
 21 18 14 21 10 28 c 0
 4 38 2 52 4 68 c 0
 5 76 5 84 8 92 c 1
 9 105 29 103 28 90 c 0
EndSplineSet
Validated: 33
EndChar

StartChar: r
Encoding: 70 114 70
Width: 79
VWidth: 249
Flags: HW
LayerCount: 2
Fore
SplineSet
23 89 m 0
 26 75 26 60 28 45 c 0
 29 39 30 35 29 29 c 1
 13 -4 8 32 8 36 c 0
 7 48 7 60 10 70 c 0
 14 83 23 93 32 100 c 0
 38 105 46 106 54 106 c 0
 66 105 74 94 76 83 c 0
 78 71 60 68 58 80 c 1
 58 79 56 85 55 85 c 0
 53 87 51 87 48 87 c 0
 47 87 45 86 45 86 c 1
 54 90 48 88 46 87 c 0
 42 85 40 81 37 78 c 0
 31 72 29 64 28 53 c 0
 28 48 28 44 28 39 c 0
 29 27 33 31 10 28 c 1
 8 42 2 70 3 85 c 1
 0 97 20 101 23 89 c 0
EndSplineSet
Validated: 37
EndChar

StartChar: q
Encoding: 71 113 71
Width: 86
VWidth: 249
Flags: HW
LayerCount: 2
Fore
SplineSet
68 97 m 0
 68 103 63 107 57 107 c 1
 52 113 45 117 37 119 c 0
 28 120 20 114 14 108 c 0
 6 100 2 88 3 73 c 0
 4 67 7 61 10 56 c 0
 14 49 20 46 28 44 c 0
 35 43 41 46 47 49 c 1
 47 41 47 32 47 23 c 0
 47 19 47 14 47 10 c 1
 45 10 42 10 40 9 c 0
 28 12 23 -7 35 -10 c 0
 39 -10 43 -10 47 -10 c 1
 47 -15 48 -21 48 -26 c 0
 48 -35 48 -45 50 -52 c 1
 50 -51 l 1
 49 -63 68 -64 69 -52 c 0
 69 -51 69 -50 69 -49 c 0
 69 -45 68 -42 68 -38 c 0
 68 -28 68 -18 67 -9 c 1
 69 -9 72 -8 74 -8 c 1
 86 -7 85 12 73 11 c 1
 73 11 l 1
 71 11 69 10 67 10 c 1
 67 15 67 19 67 24 c 0
 67 37 68 52 68 65 c 0
 68 70 68 74 68 79 c 0
 69 84 69 91 68 97 c 0
48 80 m 0
 46 72 41 66 33 63 c 0
 31 63 29 64 27 65 c 0
 19 76 24 93 34 99 c 0
 34 99 l 0
 35 99 35 99 36 99 c 0
 41 96 45 89 48 84 c 0
 48 83 48 81 48 80 c 0
34 99 m 1
 30 98 30 98 32 100 c 0
 33 100 33 99 34 99 c 1
35 63 m 0
 34 63 34 63 33 63 c 1
 35 64 37 64 37 64 c 1
 37 64 36 64 35 63 c 0
EndSplineSet
Validated: 37
EndChar

StartChar: y
Encoding: 72 121 72
Width: 87
VWidth: 249
Flags: HW
LayerCount: 2
Fore
SplineSet
31 87 m 1
 36 74 36 59 38 45 c 0
 39 42 40 39 43 37 c 0
 46 35 49 35 52 35 c 0
 54 36 58 37 50 35 c 1
 54 38 l 0
 60 43 62 50 62 60 c 0
 62 64 60 68 60 72 c 1
 61 71 61 70 62 70 c 0
 67 70 72 71 77 72 c 0
 77 72 l 1
 77 71 78 65 79 59 c 0
 81 47 81 35 82 22 c 0
 83 12 85 0 84 -11 c 0
 84 -27 77 -39 67 -45 c 0
 59 -49 50 -50 42 -49 c 0
 37 -49 31 -48 26 -48 c 0
 20 -47 15 -44 10 -40 c 0
 7 -38 6 -35 4 -32 c 0
 -1 -21 17 -13 22 -24 c 1
 24 -27 28 -28 32 -28 c 0
 37 -29 42 -29 47 -29 c 0
 49 -29 65 -27 54 -30 c 1
 61 -29 64 -18 64 -11 c 0
 64 -6 64 -1 64 4 c 0
 63 15 61 27 60 38 c 0
 60 44 60 50 59 56 c 0
 59 60 58 64 58 68 c 0
 58 70 58 78 59 79 c 0
 75 86 72 87 78 80 c 1
 87 62 81 37 70 26 c 0
 64 20 56 15 47 16 c 0
 32 17 21 28 18 41 c 0
 17 47 16 54 15 60 c 0
 14 68 11 75 11 83 c 0
 8 95 28 99 31 87 c 1
EndSplineSet
Validated: 37
EndChar

StartChar: s
Encoding: 73 115 73
Width: 83
VWidth: 249
Flags: HW
LayerCount: 2
Fore
SplineSet
38 100 m 0
 35 101 33 99 30 98 c 1
 38 101 32 98 30 97 c 0
 27 95 23 91 23 87 c 0
 25 81 32 77 39 77 c 0
 43 77 48 77 52 77 c 0
 66 76 77 64 80 52 c 0
 82 37 72 26 62 20 c 0
 46 11 30 17 18 24 c 0
 13 27 10 31 8 36 c 0
 4 48 22 54 26 42 c 1
 25 45 30 40 31 40 c 0
 35 38 39 36 44 35 c 0
 49 34 54 38 46 34 c 1
 46 34 47 34 48 34 c 0
 53 37 60 40 60 47 c 0
 59 53 53 57 47 57 c 0
 33 57 23 58 15 65 c 0
 9 70 4 77 3 84 c 0
 2 102 16 114 30 118 c 0
 46 123 60 113 66 104 c 0
 73 94 57 82 50 92 c 1
 46 95 43 98 38 100 c 0
EndSplineSet
Validated: 37
EndChar

StartChar: w
Encoding: 74 119 74
Width: 95
VWidth: 249
Flags: HW
LayerCount: 2
Fore
SplineSet
26 80 m 0
 29 66 33 51 35 37 c 0
 35 34 37 34 36 36 c 0
 34 41 25 33 32 38 c 1
 37 43 36 53 36 62 c 0
 36 63 38 71 38 71 c 0
 57 73 54 77 57 69 c 0
 61 58 60 41 68 34 c 0
 69 33 73 33 72 35 c 1
 64 31 68 32 70 37 c 0
 72 41 72 45 72 49 c 0
 71 61 70 72 68 83 c 0
 68 87 66 91 66 95 c 0
 66 96 66 96 66 97 c 0
 64 109 83 111 85 99 c 1
 85 100 l 1
 86 96 87 92 88 88 c 0
 90 76 91 63 92 50 c 0
 92 32 86 20 73 15 c 1
 65 14 58 16 52 22 c 0
 43 33 43 46 39 62 c 1
 39 62 l 0
 45 63 50 65 56 66 c 0
 56 67 l 1
 56 65 56 65 56 63 c 0
 56 48 56 37 49 28 c 0
 44 21 36 16 27 19 c 0
 21 22 17 27 16 34 c 0
 14 48 10 61 6 74 c 0
 4 80 3 87 3 94 c 1
 0 106 20 110 23 98 c 0
 24 92 25 86 26 80 c 0
EndSplineSet
Validated: 37
EndChar

StartChar: o
Encoding: 75 111 75
Width: 86
VWidth: 249
Flags: HW
LayerCount: 2
Fore
SplineSet
3 60 m 0
 4 84 20 102 45 100 c 0
 52 99 59 97 65 93 c 0
 75 86 64 70 54 77 c 1
 49 79 43 80 38 81 c 1
 41 83 27 78 31 79 c 0
 32 79 34 80 35 80 c 1
 35 80 34 79 33 79 c 0
 27 76 24 68 23 60 c 0
 24 50 29 45 34 39 c 0
 37 37 40 34 43 34 c 0
 46 33 55 37 47 35 c 1
 55 38 61 44 63 53 c 1
 64 63 60 70 54 75 c 0
 52 77 48 80 44 80 c 0
 41 81 42 80 40 79 c 1
 40 79 l 1
 31 70 18 84 27 93 c 1
 34 97 43 100 52 98 c 0
 71 93 85 76 83 52 c 0
 81 36 72 25 59 19 c 0
 51 16 44 13 35 16 c 0
 29 18 24 21 19 26 c 0
 11 34 3 45 3 60 c 0
EndSplineSet
Validated: 37
EndChar

StartChar: ntilde
Encoding: 76 241 76
Width: 93
VWidth: 249
Flags: HW
LayerCount: 2
Fore
SplineSet
35 177 m 0
 26 179 18 174 13 168 c 0
 8 162 4 155 3 147 c 0
 0 135 20 131 23 143 c 1
 26 148 27 154 30 158 c 1
 31 157 32 155 33 153 c 0
 35 149 36 145 38 141 c 0
 41 135 46 131 53 130 c 0
 63 130 69 136 74 143 c 0
 77 148 77 154 77 160 c 0
 77 162 77 164 76 166 c 0
 74 178 55 175 57 163 c 0
 57 162 57 160 57 159 c 0
 57 156 57 153 55 151 c 1
 51 162 48 174 35 177 c 0
31 158 m 1
 32 159 34 160 34 160 c 0
 35 160 34 158 31 158 c 1
56 150 m 0
 57 151 56 150 57 149 c 0
 58 147 56 148 56 149 c 0
 56 150 l 0
46 112 m 0
 32 112 22 100 18 89 c 0
 13 77 11 63 13 47 c 0
 14 39 14 31 16 23 c 1
 18 10 38 13 36 26 c 1
 36 34 35 41 34 49 c 0
 33 56 34 63 34 70 c 0
 34 75 35 80 37 84 c 0
 39 87 41 92 45 93 c 0
 46 93 47 93 47 93 c 1
 46 93 45 92 44 92 c 1
 46 92 48 91 50 91 c 0
 54 91 57 90 60 88 c 0
 65 85 66 77 68 71 c 0
 69 67 68 62 68 57 c 0
 68 47 70 36 71 27 c 0
 71 27 l 0
 70 18 85 13 89 23 c 0
 90 27 90 26 91 28 c 0
 91 33 90 38 89 43 c 0
 89 48 89 53 89 58 c 0
 89 76 84 95 73 104 c 0
 65 109 58 112 46 112 c 0
EndSplineSet
Validated: 41
EndChar

StartChar: p
Encoding: 77 112 77
Width: 81
VWidth: 249
Flags: HW
LayerCount: 2
Fore
SplineSet
23 93 m 1
 24 87 24 80 25 74 c 0
 27 56 28 37 29 18 c 0
 29 12 30 4 30 -2 c 0
 30 -13 30 -23 31 -33 c 0
 32 -37 31 -42 31 -44 c 1
 10 -45 13 -48 11 -35 c 0
 9 -24 9 -13 8 -2 c 0
 6 21 2 43 4 67 c 0
 4 72 6 78 7 83 c 0
 8 90 12 96 17 101 c 0
 24 107 33 108 42 107 c 0
 49 106 54 102 59 98 c 0
 64 95 69 91 72 86 c 0
 81 75 80 51 76 35 c 0
 74 28 69 22 63 18 c 0
 55 13 48 12 39 15 c 0
 35 17 37 16 33 18 c 0
 22 25 33 42 44 35 c 1
 47 34 46 34 48 33 c 0
 51 32 55 35 48 32 c 1
 48 32 49 32 50 32 c 0
 53 31 55 36 56 38 c 0
 57 42 59 47 59 52 c 0
 59 61 60 70 55 75 c 0
 52 78 49 81 46 84 c 0
 43 86 40 88 36 88 c 0
 34 88 33 87 32 87 c 1
 33 88 35 88 33 88 c 0
 30 87 28 84 27 81 c 0
 26 77 24 72 24 68 c 0
 24 57 22 46 24 36 c 0
 26 20 29 2 29 -16 c 0
 29 -21 30 -27 30 -32 c 0
 31 -45 37 -42 13 -43 c 1
 13 -50 11 -36 11 -36 c 0
 11 -31 10 -25 10 -20 c 0
 10 -14 9 -9 9 -3 c 0
 9 23 7 47 5 71 c 0
 4 78 3 85 3 92 c 0
 2 105 22 106 23 93 c 1
EndSplineSet
Validated: 37
EndChar

StartChar: v
Encoding: 78 118 78
Width: 89
VWidth: 249
Flags: HW
LayerCount: 2
Fore
SplineSet
23 100 m 1
 27 87 31 74 36 62 c 0
 38 56 41 51 43 46 c 0
 45 42 46 38 49 34 c 0
 51 31 50 35 50 35 c 0
 48 35 47 35 45 34 c 1
 51 37 52 47 54 54 c 0
 56 65 60 77 62 88 c 0
 63 95 64 101 66 107 c 0
 68 120 88 117 86 104 c 0
 85 98 83 91 82 85 c 0
 81 80 79 74 78 69 c 0
 73 51 73 29 59 19 c 0
 56 18 53 17 50 16 c 0
 43 14 37 17 33 22 c 0
 26 31 21 44 17 55 c 0
 14 61 11 67 9 73 c 0
 6 80 3 88 3 96 c 1
 0 108 20 112 23 100 c 1
EndSplineSet
Validated: 37
EndChar

StartChar: z
Encoding: 79 122 79
Width: 83
VWidth: 249
Flags: HW
LayerCount: 2
Fore
SplineSet
49 86 m 1
 47 81 44 75 41 70 c 1
 35 70 27 72 21 71 c 1
 9 74 5 54 17 51 c 0
 20 50 23 50 27 50 c 1
 25 47 23 44 21 41 c 0
 16 32 18 24 27 19 c 0
 32 17 37 16 43 16 c 0
 49 16 54 16 60 16 c 0
 64 16 67 17 70 17 c 0
 82 15 85 34 73 36 c 0
 70 36 67 36 64 36 c 0
 59 36 53 35 48 35 c 0
 46 35 43 35 41 35 c 1
 44 40 48 45 51 50 c 0
 52 50 55 50 56 50 c 0
 62 50 67 52 73 54 c 1
 81 61 72 73 64 71 c 1
 68 79 75 94 68 102 c 0
 65 105 61 106 57 106 c 0
 50 106 44 105 37 105 c 0
 30 105 22 106 15 105 c 1
 3 108 -2 89 10 86 c 0
 17 85 24 85 31 85 c 0
 37 85 43 85 49 86 c 1
EndSplineSet
Validated: 41
EndChar

StartChar: numbersign
Encoding: 80 35 80
Width: 98
VWidth: 249
Flags: HW
LayerCount: 2
Fore
SplineSet
78 123 m 1
 80 124 86 124 86 125 c 0
 98 125 98 144 86 144 c 0
 83 144 79 144 76 143 c 1
 75 154 74 164 73 174 c 0
 72 181 71 189 69 196 c 0
 69 198 67 200 66 201 c 0
 60 206 47 202 49 192 c 1
 49 177 54 163 55 149 c 0
 55 145 56 140 56 136 c 1
 49 134 43 132 37 130 c 1
 36 141 34 152 33 164 c 0
 32 172 32 181 30 189 c 1
 28 201 8 198 10 186 c 1
 10 178 11 169 12 161 c 0
 13 149 15 138 17 127 c 0
 17 126 17 123 17 122 c 1
 14 120 10 119 7 117 c 0
 -3 110 9 94 19 101 c 1
 20 92 19 82 20 73 c 1
 18 72 15 71 13 70 c 1
 13 70 l 1
 0 71 0 52 12 51 c 0
 15 51 18 51 21 52 c 1
 21 47 22 43 22 38 c 0
 23 28 22 19 23 9 c 0
 23 4 23 -1 24 -6 c 0
 24 -7 24 -6 24 -5 c 1
 23 -17 42 -19 43 -7 c 0
 43 -4 44 -5 44 -2 c 0
 44 2 43 7 43 11 c 0
 42 26 41 41 41 56 c 0
 41 57 41 57 41 58 c 0
 48 60 56 61 63 63 c 1
 63 61 63 61 63 59 c 0
 63 49 65 39 65 29 c 0
 65 24 66 20 66 15 c 0
 67 7 67 -1 67 -8 c 0
 68 -21 88 -19 87 -6 c 0
 87 -3 87 -2 87 1 c 0
 87 11 85 22 85 31 c 0
 85 41 84 50 84 60 c 0
 84 63 83 66 83 69 c 1
 85 70 87 71 89 72 c 0
 98 78 91 91 82 89 c 1
 81 101 79 112 78 123 c 1
78 123 m 1
 78 123 l 2
 81 124 l 1
 80 124 79 123 78 123 c 1
59 116 m 1
 61 105 61 94 62 83 c 1
 55 81 47 80 40 78 c 1
 39 89 39 99 38 109 c 1
 44 112 52 114 59 116 c 1
EndSplineSet
Validated: 37
EndChar

StartChar: question
Encoding: 81 63 81
Width: 96
VWidth: 249
Flags: HW
LayerCount: 2
Fore
SplineSet
80 230 m 1
 71 237 60 241 45 239 c 0
 29 238 16 227 11 214 c 0
 7 204 5 192 4 179 c 0
 3 172 3 166 3 159 c 1
 3 159 l 1
 3 146 23 147 23 160 c 1
 26 177 25 195 31 209 c 0
 32 213 35 217 39 218 c 0
 41 219 45 220 45 220 c 1
 42 219 40 218 43 219 c 0
 52 221 60 219 66 215 c 0
 79 205 71 182 71 164 c 0
 71 159 70 156 70 151 c 0
 68 142 67 133 63 126 c 0
 58 116 51 108 43 101 c 0
 38 96 34 91 30 86 c 0
 18 69 17 39 18 11 c 0
 18 10 19 9 19 8 c 0
 21 -5 40 -2 38 11 c 0
 38 12 38 11 38 12 c 0
 38 24 38 36 39 47 c 0
 40 59 42 70 48 77 c 0
 63 95 82 107 87 135 c 0
 89 144 91 155 91 165 c 0
 92 181 96 199 90 214 c 0
 87 220 85 226 80 230 c 1
51 -21 m 0
 47 -16 40 -13 32 -13 c 0
 25 -14 17 -16 15 -24 c 0
 15 -26 15 -27 15 -29 c 0
 15 -30 15 -32 16 -33 c 0
 14 -42 20 -49 27 -52 c 0
 43 -56 62 -40 51 -21 c 0
34 -40 m 0
 35 -41 l 1
 27 -44 32 -41 34 -40 c 0
EndSplineSet
Validated: 37
EndChar

StartChar: equal
Encoding: 82 61 82
Width: 69
VWidth: 249
Flags: HW
LayerCount: 2
Fore
SplineSet
16 117 m 1
 4 121 -2 102 10 98 c 0
 18 96 25 96 33 96 c 0
 39 96 44 97 50 98 c 1
 62 97 63 116 51 117 c 0
 46 117 43 116 38 116 c 0
 31 116 23 117 16 117 c 1
37 90 m 0
 30 89 24 90 17 89 c 1
 17 89 l 1
 5 92 1 73 13 70 c 1
 26 69 39 70 51 71 c 0
 52 71 52 71 52 71 c 0
 63 65 72 82 61 88 c 0
 59 89 55 91 49 91 c 0
 45 91 41 90 37 90 c 0
EndSplineSet
Validated: 37
EndChar

StartChar: at
Encoding: 83 64 83
Width: 107
VWidth: 249
Flags: HW
LayerCount: 2
Fore
SplineSet
36 60 m 1
 24 67 21 83 28 96 c 0
 34 106 48 116 63 112 c 0
 70 110 72 104 74 98 c 0
 75 92 75 87 75 81 c 0
 75 76 75 71 75 66 c 0
 76 64 76 60 78 58 c 1
 78 59 78 58 79 58 c 0
 80 58 79 60 79 60 c 0
 77 60 76 58 74 58 c 1
 77 59 78 63 79 66 c 0
 84 77 85 94 81 106 c 0
 77 115 74 124 67 130 c 0
 64 133 61 136 57 137 c 0
 54 138 50 137 47 136 c 0
 44 136 41 135 39 134 c 1
 39 134 45 136 41 134 c 0
 30 129 26 111 24 97 c 0
 23 87 24 78 25 69 c 0
 27 59 30 47 44 50 c 0
 46 50 48 50 50 50 c 0
 62 49 60 30 48 31 c 1
 39 30 30 30 23 34 c 0
 17 38 13 43 10 49 c 0
 6 58 4 69 3 81 c 0
 3 86 2 92 3 97 c 0
 4 112 8 124 14 135 c 0
 18 140 21 146 27 149 c 0
 34 153 41 155 49 156 c 0
 55 157 61 157 67 154 c 0
 78 149 87 140 93 129 c 0
 101 117 106 100 103 79 c 0
 100 64 97 50 86 43 c 0
 83 42 81 41 78 40 c 0
 72 39 66 42 62 46 c 0
 54 57 54 74 55 93 c 0
 55 94 55 95 55 95 c 1
 55 95 57 94 55 95 c 0
 53 94 l 1
 61 97 56 94 54 94 c 0
 50 92 44 88 44 81 c 0
 44 79 44 78 46 77 c 0
 49 77 60 80 52 77 c 1
 62 85 74 69 64 61 c 1
 54 57 46 56 36 60 c 1
EndSplineSet
Validated: 37
EndChar

StartChar: underscore
Encoding: 84 95 84
Width: 70
VWidth: 249
Flags: HW
LayerCount: 2
Fore
SplineSet
17 29 m 1
 24 29 29 29 36 29 c 0
 42 30 48 29 54 29 c 0
 56 29 59 29 61 29 c 0
 73 26 67 7 55 10 c 1
 53 9 52 9 50 9 c 0
 36 9 22 7 9 11 c 1
 -3 16 5 34 17 29 c 1
EndSplineSet
Validated: 33
EndChar

StartChar: questiondown
Encoding: 85 191 85
Width: 92
VWidth: 249
Flags: HW
LayerCount: 2
Fore
SplineSet
43 244 m 1
 36 240 32 233 30 225 c 1
 30 216 34 210 43 208 c 1
 54 207 60 213 62 223 c 0
 62 227 61 230 59 232 c 1
 62 237 61 242 57 245 c 0
 53 248 47 249 43 244 c 1
38 183 m 1
 36 176 37 169 36 162 c 0
 36 156 36 151 36 145 c 0
 36 140 36 134 36 129 c 0
 36 125 37 121 36 117 c 0
 35 113 33 110 31 107 c 0
 27 103 24 99 21 95 c 0
 17 90 13 86 10 80 c 0
 5 71 2 61 3 48 c 0
 3 43 4 38 4 33 c 0
 4 12 2 -11 8 -27 c 0
 12 -40 21 -50 32 -56 c 0
 46 -63 62 -61 74 -53 c 0
 85 -46 93 -29 88 -12 c 0
 84 0 65 -6 69 -18 c 0
 70 -19 69 -21 69 -22 c 0
 69 -26 68 -30 67 -33 c 0
 65 -36 63 -37 60 -39 c 0
 58 -40 53 -42 61 -39 c 1
 61 -39 56 -41 57 -41 c 1
 47 -42 38 -37 33 -31 c 0
 26 -23 22 -10 23 5 c 0
 23 20 24 35 23 50 c 0
 22 67 32 77 39 86 c 0
 46 95 55 103 56 116 c 0
 57 131 54 147 56 162 c 0
 57 169 58 176 58 183 c 0
 58 187 56 189 53 191 c 0
 47 194 38 192 38 183 c 1
EndSplineSet
Validated: 41
EndChar

StartChar: asterisk
Encoding: 86 42 86
Width: 72
VWidth: 249
Flags: HW
LayerCount: 2
Fore
SplineSet
6 113 m 0
 10 108 14 103 18 98 c 1
 17 98 14 97 13 97 c 0
 1 98 0 79 12 78 c 0
 13 78 13 78 14 78 c 1
 13 76 12 74 11 73 c 0
 4 62 21 52 28 63 c 0
 31 67 34 71 37 75 c 1
 39 73 40 70 42 68 c 0
 49 57 67 67 60 78 c 0
 59 79 59 80 58 81 c 1
 58 81 l 1
 70 79 73 98 61 100 c 0
 59 100 56 100 54 100 c 1
 57 105 60 110 62 116 c 0
 66 128 47 134 43 122 c 1
 40 118 38 114 35 110 c 1
 30 116 27 121 21 126 c 0
 19 128 16 129 14 129 c 0
 7 129 0 120 6 113 c 0
EndSplineSet
Validated: 37
EndChar

StartChar: quotedbl
Encoding: 87 34 87
Width: 59
VWidth: 249
Flags: HW
LayerCount: 2
Fore
SplineSet
56 210 m 0
 56 223 36 223 36 210 c 1
 34 202 33 193 33 185 c 0
 33 181 33 179 33 175 c 0
 34 162 55 163 54 176 c 0
 54 188 56 199 56 210 c 0
6 206 m 0
 4 198 3 191 3 183 c 0
 3 177 3 169 4 163 c 0
 5 151 24 153 23 165 c 0
 24 166 l 0
 24 172 24 177 24 183 c 0
 24 190 25 197 25 204 c 1
 25 204 l 1
 26 211 20 215 15 215 c 0
 11 215 7 212 6 206 c 0
EndSplineSet
Validated: 41
EndChar

StartChar: percent
Encoding: 88 37 88
Width: 100
VWidth: 249
Flags: HW
LayerCount: 2
Fore
SplineSet
32 165 m 0
 20 165 13 158 10 153 c 0
 8 149 6 146 4 142 c 0
 1 133 4 124 10 117 c 1
 20 109 26 111 38 115 c 1
 49 122 59 137 51 154 c 0
 47 161 41 165 32 165 c 0
75 150 m 1
 63 134 55 117 46 99 c 0
 41 90 37 82 32 73 c 0
 26 62 20 50 15 39 c 0
 10 27 29 20 34 32 c 0
 36 35 38 39 40 43 c 1
 41 35 46 28 53 24 c 0
 59 21 66 21 73 22 c 0
 83 23 89 29 94 37 c 0
 97 43 98 49 98 55 c 0
 98 63 95 70 89 75 c 0
 82 80 73 80 65 79 c 0
 59 79 56 74 56 69 c 0
 55 68 54 68 53 67 c 1
 63 84 71 101 81 118 c 0
 85 126 89 134 93 142 c 0
 99 154 81 161 75 150 c 1
31 147 m 1
 34 146 34 141 33 138 c 0
 31 135 29 132 25 131 c 1
 34 133 27 131 25 130 c 1
 22 131 23 135 24 137 c 0
 26 141 28 144 31 147 c 1
29 146 m 0
 29 146 l 1
 29 146 l 0
78 54 m 0
 78 49 77 44 73 42 c 1
 74 42 74 43 75 43 c 1
 74 42 l 0
 70 41 60 39 59 44 c 0
 59 48 65 51 68 52 c 0
 69 52 71 52 70 53 c 0
 69 54 69 51 68 52 c 0
 67 53 73 54 72 55 c 1
 72 55 l 1
 74 55 76 54 77 55 c 1
 78 54 l 0
73 42 m 1
 71 42 72 42 73 42 c 1
EndSplineSet
Validated: 37
EndChar

StartChar: ampersand
Encoding: 89 38 89
Width: 100
VWidth: 249
Flags: HW
LayerCount: 2
Fore
SplineSet
65 33 m 0
 62 38 58 43 54 48 c 0
 50 53 46 57 42 62 c 0
 38 67 34 73 30 78 c 0
 19 94 9 113 4 135 c 1
 -1 151 8 162 17 169 c 0
 26 175 33 175 42 170 c 0
 58 159 50 133 45 118 c 0
 41 108 36 98 32 87 c 0
 29 78 26 68 26 57 c 0
 26 53 25 48 27 44 c 0
 28 42 31 44 33 45 c 0
 37 47 31 44 37 46 c 1
 36 46 36 46 35 46 c 0
 34 46 37 47 38 47 c 0
 48 51 54 60 60 68 c 0
 64 72 67 77 70 81 c 0
 71 82 71 78 71 76 c 1
 66 87 83 95 88 84 c 1
 89 79 90 77 88 73 c 0
 82 63 74 53 66 44 c 0
 61 39 56 34 50 31 c 0
 42 28 35 25 26 25 c 0
 18 26 12 30 8 37 c 0
 6 43 5 49 5 55 c 0
 5 61 6 68 7 74 c 0
 10 86 13 98 18 108 c 0
 20 113 23 118 26 123 c 0
 28 127 28 132 30 136 c 0
 31 140 32 143 32 147 c 0
 32 149 33 153 31 154 c 0
 30 154 26 154 27 154 c 0
 32 156 34 156 31 156 c 1
 25 154 21 147 24 139 c 0
 32 97 60 74 82 46 c 0
 87 40 92 35 96 29 c 0
 103 19 87 7 80 17 c 1
 75 22 70 28 65 33 c 0
EndSplineSet
Validated: 37
EndChar

StartChar: period
Encoding: 90 46 90
Width: 40
VWidth: 249
Flags: HW
LayerCount: 2
Fore
SplineSet
23 12 m 1
 23 14 23 15 24 16 c 0
 24 16 l 1
 18 15 19 15 18 12 c 0
 18 10 16 14 18 11 c 0
 22 7 25 12 25 15 c 0
 25 19 18 25 14 19 c 0
 14 17 16 14 16 13 c 1
 10 23 26 33 32 23 c 1
 34 16 35 14 31 8 c 0
 30 7 29 6 28 5 c 0
 18 0 10 1 6 12 c 0
 6 14 6 15 6 16 c 0
 7 26 16 31 25 29 c 1
 33 26 37 21 38 12 c 1
 36 1 30 -4 19 -4 c 1
 11 -2 4 3 3 12 c 0
 3 21 7 27 14 32 c 1
 23 41 37 27 28 18 c 0
 26 16 24 14 23 12 c 1
EndSplineSet
Validated: 37
EndChar

StartChar: comma
Encoding: 91 44 91
Width: 43
VWidth: 249
Flags: HW
LayerCount: 2
Fore
SplineSet
29 14 m 1
 28 15 24 6 24 8 c 0
 24 11 22 13 20 15 c 0
 19 16 l 0
 16 16 12 13 15 15 c 0
 19 18 18 21 19 16 c 0
 19 14 20 13 21 11 c 0
 21 10 l 0
 23 10 24 11 25 11 c 1
 19 8 22 7 22 15 c 1
 15 4 19 22 16 22 c 0
 14 22 13 20 11 20 c 1
 12 21 l 0
 20 27 26 29 34 22 c 0
 40 15 42 2 40 -10 c 0
 39 -13 38 -16 36 -19 c 0
 30 -30 13 -21 19 -10 c 1
 19 -12 20 -8 20 -8 c 0
 21 -4 22 0 21 4 c 0
 21 6 20 8 20 9 c 1
 21 8 23 7 24 7 c 0
 34 9 29 10 27 9 c 0
 26 8 23 5 22 5 c 0
 20 4 12 0 9 3 c 0
 7 5 6 8 4 10 c 0
 4 12 3 13 3 15 c 0
 4 20 9 24 13 27 c 0
 24 31 31 33 37 21 c 1
 39 12 37 8 30 2 c 0
 23 -3 12 -7 6 2 c 0
 0 11 7 22 14 27 c 1
 22 37 37 24 29 14 c 1
EndSplineSet
Validated: 37
EndChar

StartChar: greater
Encoding: 92 62 92
Width: 65
VWidth: 249
Flags: HW
LayerCount: 2
Fore
SplineSet
19 132 m 1
 30 127 42 121 53 116 c 0
 60 112 63 105 62 97 c 0
 60 84 51 74 43 65 c 0
 41 63 39 60 37 58 c 0
 31 47 13 57 19 68 c 1
 24 75 30 81 36 87 c 0
 38 90 40 94 42 98 c 0
 43 99 45 97 42 99 c 0
 36 101 30 103 25 106 c 0
 19 109 12 112 7 116 c 0
 -3 123 9 139 19 132 c 1
EndSplineSet
Validated: 37
EndChar

StartChar: less
Encoding: 93 60 93
Width: 69
VWidth: 249
Flags: HW
LayerCount: 2
Fore
SplineSet
35 105 m 0
 31 100 27 96 23 91 c 1
 23 92 23 93 25 92 c 0
 35 86 45 81 54 74 c 0
 57 72 60 69 63 67 c 0
 73 58 60 43 50 52 c 1
 42 57 33 63 25 68 c 0
 15 74 -1 82 4 98 c 0
 7 104 13 109 17 115 c 0
 22 121 26 128 32 133 c 1
 39 144 56 134 49 123 c 1
 45 117 40 111 35 105 c 0
EndSplineSet
Validated: 37
EndChar

StartChar: colon
Encoding: 94 58 94
Width: 40
VWidth: 249
Flags: HW
LayerCount: 2
Fore
SplineSet
28 146 m 1
 27 155 15 158 10 150 c 0
 6 145 1 137 6 130 c 0
 11 121 20 119 29 124 c 0
 30 125 31 126 32 127 c 0
 35 134 33 141 28 146 c 1
30 64 m 1
 27 70 17 72 13 65 c 0
 12 64 11 63 10 62 c 0
 9 61 8 60 7 59 c 0
 0 50 5 37 14 34 c 1
 20 30 26 34 32 36 c 1
 38 41 39 48 37 55 c 0
 35 59 33 62 30 64 c 1
19 50 m 1
 19 50 l 1
EndSplineSet
Validated: 41
EndChar

StartChar: semicolon
Encoding: 95 59 95
Width: 42
VWidth: 249
Flags: HW
LayerCount: 2
Fore
SplineSet
27 156 m 1
 22 161 13 158 11 152 c 1
 4 147 2 141 4 133 c 1
 7 128 12 121 19 123 c 0
 22 124 25 125 28 126 c 0
 30 128 30 130 31 132 c 1
 37 134 41 140 38 147 c 0
 36 152 31 155 27 156 c 1
31 148 m 1
 32 147 32 147 31 148 c 1
11 82 m 1
 4 77 2 70 3 62 c 1
 6 55 11 52 16 52 c 1
 16 50 15 49 14 47 c 0
 13 45 12 43 12 43 c 0
 9 38 11 29 19 29 c 1
 28 34 29 33 33 40 c 0
 35 45 36 50 36 56 c 0
 36 60 37 63 36 67 c 1
 37 73 34 78 31 80 c 0
 27 85 16 91 11 82 c 1
EndSplineSet
Validated: 41
EndChar

StartChar: plus
Encoding: 96 43 96
Width: 82
VWidth: 249
Flags: HW
LayerCount: 2
Fore
SplineSet
56 111 m 1
 56 118 56 128 52 131 c 0
 46 136 36 132 36 123 c 0
 35 118 34 113 34 108 c 1
 28 108 21 108 15 107 c 1
 3 110 -2 91 10 88 c 0
 18 87 25 87 33 88 c 1
 33 83 33 79 33 74 c 0
 33 71 33 67 34 64 c 1
 33 52 52 51 53 63 c 0
 54 67 54 71 54 75 c 0
 54 80 54 85 54 90 c 1
 59 91 65 92 70 93 c 1
 83 93 83 113 70 113 c 0
 65 112 61 112 56 111 c 1
EndSplineSet
Validated: 41
EndChar

StartChar: hyphen
Encoding: 97 45 97
Width: 58
VWidth: 249
Flags: HW
LayerCount: 2
Fore
SplineSet
13 102 m 1
 20 104 28 103 35 104 c 0
 40 105 45 105 50 103 c 0
 61 98 53 80 42 85 c 1
 41 84 33 84 31 84 c 0
 24 83 19 83 12 83 c 0
 0 84 1 103 13 102 c 1
EndSplineSet
Validated: 33
EndChar

StartChar: quotesingle
Encoding: 98 39 98
Width: 28
VWidth: 249
Flags: HW
LayerCount: 2
Fore
SplineSet
6 206 m 0
 4 198 3 191 3 183 c 0
 3 177 3 169 4 163 c 0
 5 151 24 153 23 165 c 0
 24 166 l 0
 24 172 24 177 24 183 c 0
 24 190 25 197 25 204 c 1
 25 204 l 1
 26 211 20 215 15 215 c 0
 11 215 7 212 6 206 c 0
EndSplineSet
Validated: 41
EndChar

StartChar: slash
Encoding: 99 47 99
Width: 73
VWidth: 249
Flags: HW
LayerCount: 2
Fore
SplineSet
70 143 m 1
 57 111 43 79 28 49 c 0
 26 44 24 40 21 36 c 0
 15 26 -1 36 5 46 c 1
 4 45 l 1
 4 45 7 54 8 55 c 0
 11 63 15 70 18 78 c 0
 26 94 33 111 41 128 c 0
 44 135 47 143 51 149 c 1
 55 161 74 155 70 143 c 1
EndSplineSet
Validated: 33
EndChar
